<?xml version="1.0" ?><!DOCTYPE svg  PUBLIC '-//W3C//DTD SVG 1.1//EN'  'http://www.w3.org/Graphics/SVG/1.1/DTD/svg11.dtd'><svg class="icon" height="165.83px" version="1.1" viewBox="0 0 1235 1024" width="200px" xmlns="http://www.w3.org/2000/svg"><path d="M451.555057 1019.135392c-66.134347 0-163.402185-5.472684-251.062423-31.619953-110.742803-33.006366-176.147458-89.752019-194.341093-168.704608-0.145938-0.608076-11.675059-55.578147 40.595155-85.738717l0.267553-0.145938c1.532352-0.754014 37.773682-18.655772 76.155439-18.655772a111.302233 111.302233 0 0 1 14.764086 0.948598 47.819097 47.819097 0 0 0 6.275344 0.3162c28.701188 0 127.306793-14.131686 233.501188-56.1619C465.540805 624.615677 578.740235 561.862233 619.140805 459.705463c0.510784-1.264798 50.591924-133.192969 43.781473-280.517625-7.029359-6.372637-8.926556-27.801235-9.729217-46.846175L649.447313 59.640095a4.694347 4.694347 0 0 1 0.267554-1.824228c0.486461-1.459382 5.667268-14.593824 32.08209-27.630974C716.116767 13.377672 769.432871 4.864608 840.212919 4.864608a1239.185938 1239.185938 0 0 1 128.668883 7.564466c0.145938 0 10.531876 1.216152 19.944894 1.216152 8.87791 0 11.577767-1.070214 12.16152-1.362091a5.132162 5.132162 0 0 1 2.091781-1.508028 63.093967 63.093967 0 0 1 20.066509-3.04038 69.028789 69.028789 0 0 1 44.413871 16.174822h0.389169a5.983468 5.983468 0 0 1 2.140427 0.413491c7.880665 2.164751 17.561235 6.08076 19.701663 12.47772a4.864608 4.864608 0 0 1 0.243231 1.556675c0 2.943088-0.145938 70.536817-12.988504 94.446365 2.845796 9.729216 13.474964 50.543278 1.289121 77.493207-3.161995 16.053207-9.729216 59.299572-3.916009 75.401425a4.864608 4.864608 0 0 1 0.291876 1.848551c-0.437815 12.16152-2.23772 51.078385-7.661758 62.364276v61.68323l1.751259 17.415297c3.526841 4.499762 12.793919 19.458432 7.832019 48.305558l1.897198 119.523421c6.88342 23.033919 35.6819 120.39905 41.349168 152.918955a4.71867 4.71867 0 0 1 3.429549 1.556674c0.997245 1.070214 23.885226 26.268884 22.40152 59.980618 5.740238 15.031639 13.329026 29.333587 16.418052 30.890261a4.864608 4.864608 0 0 1 2.651212 3.745748c0.55943 4.499762 13.085796 110.232019-44.31658 134.968551-6.202375 5.326746-49.083895 36.289976-204.313539 36.289977-41.76266 0-88.681805-2.286366-139.443991-6.761806-18.436865-1.629644-37.165606-2.432304-55.675439-2.432304s-37.846651 0.851306-56.575392 2.432304c-37.943943 3.429549-96.416532 7.491496-159.510499 7.491497l-4.353824 0.170261c-8.245511 0.291876-25.368931 1.045891-49.035249 1.045891z" fill="#1B1D1C"/><path d="M840.212919 9.729216a1218.754584 1218.754584 0 0 1 128.1581 7.540143s10.629169 1.240475 20.455677 1.240475c7.296912 0 14.277625-0.705368 15.931591-3.161996a57.815867 57.815867 0 0 1 18.363896-2.748503c13.304703 0 31.83886 4.037625 48.64608 21.890736 0 0-1.580998-4.71867-3.28361-5.594299 2.724181 0.729691 14.982993 4.329501 16.685606 9.43734 0 0 0 72.750214-13.401996 93.813966 0 0 15.323515 47.892067 1.92152 76.617578 0 0-11.504798 57.426698-3.84304 78.490451 0 0-1.897197 53.632304-7.661758 61.294062v63.239905l1.921521 19.142232s13.401995 13.401995 7.661757 45.970547l1.92152 120.64228s44.049026 147.446271 42.127506 160.848266l3.818718-3.818717s22.985273 24.88247 21.063753 57.426698c0 0 11.504798 30.647031 19.166556 34.490071 0 0 13.401995 107.215962-42.127506 130.201235 0 0-35.608931 35.584608-201.589359 35.584609-38.795249 0-84.71715-1.945843-139.006176-6.737483q-28.020143-2.432304-56.113254-2.432304-28.530926 0-57.013207 2.55392c-39.816817 3.59981-97.292162 7.467173-159.072684 7.467173-2.724181 0-22.790689 1.191829-53.510689 1.191829-119.377482 0-399.505938-18.169311-440.660522-196.505843 0 0-11.504798-51.710784 38.284465-80.436295 0 0 36.314299-18.144988 73.990689-18.144988a105.659287 105.659287 0 0 1 14.107364 0.899953 52.805321 52.805321 0 0 0 6.932066 0.364845c65.161425 0 402.40038-64.383088 479.455772-258.870119 0 0 51.710784-134.044276 44.049026-285.333586h-0.121615c-1.021568 0-7.686081-1.629644-9.461663-44.073349L654.311921 59.396865S671.33805 9.729216 840.212919 9.729216m227.736627 19.020618a1.191829 1.191829 0 0 1 0.535107 0.145938l-0.535107-0.145938M840.237242 0C669.294914 0 647.015009 50.470309 645.117812 56.234869a9.413017 9.413017 0 0 0-0.510784 3.672779l3.818717 72.750214c0.778337 18.996295 2.602565 32.325321 5.545654 40.668124a25.247316 25.247316 0 0 0 4.232209 7.904988c6.226698 145.670689-43.100428 275.482755-43.611212 276.796199-39.743848 100.308219-151.751449 162.404941-238.681995 196.822043-99.724466 39.451971-200.08133 55.821378-231.701283 55.821378a44.730071 44.730071 0 0 1-5.618622-0.267554 117.066793 117.066793 0 0 0-15.420808-0.997244c-39.500618 0-76.763515 18.388219-78.32019 19.166556l-0.535106 0.291876C15.467266 745.501188 5.275912 769.289121 1.82204 786.339572a88.56019 88.56019 0 0 0-0.437815 33.468504c18.655772 80.874109 85.130641 138.835914 197.721996 172.353064C287.325888 1018.454347 385.080187 1024 451.555057 1024c23.76361 0 40.96-0.705368 49.229833-1.045891l4.15924-0.145938c63.239905 0 121.931401-4.086271 159.948314-7.515819 18.582803-1.653967 37.457482-2.432304 56.137577-2.432304s36.946698 0.826983 55.261948 2.432304c50.8838 4.499762 97.948884 6.786128 139.857482 6.786128 69.782803 0 125.579857-6.129406 165.834489-18.193634 25.247316-7.588789 36.898052-15.493777 40.96-18.753065 59.956295-26.755344 47.138052-135.138812 46.578623-139.784513a9.729216 9.729216 0 0 0-4.864609-7.296912c-2.870119-2.553919-9.218432-15.031639-14.08304-27.582327 1.045891-35.171116-22.693397-61.342708-23.739287-62.461568a9.364371 9.364371 0 0 0-2.651212-2.018813c-2.189074-11.456152-7.296912-33.055012-19.288171-75.620332-9.558955-34.173872-19.458432-67.399145-21.452921-74.282565l-1.872874-118.380238c4.742993-28.287696-3.478195-44.24361-8.026604-50.543278l-1.580997-15.809976V350.981473c2.116105-4.864608 4.207886-13.961425 5.959145-35.146794 1.216152-14.423563 1.67829-27.655297 1.702612-28.214727a9.388694 9.388694 0 0 0-0.583753-3.672779c-4.864608-13.256057-0.170261-50.810831 4.013302-72.215106 11.820998-26.925606 2.724181-65.84247-0.778337-78.466129 12.307458-25.977007 12.672304-87.562945 12.672304-94.859857a10.24 10.24 0 0 0-0.486461-3.089026c-2.262043-6.761805-9.948124-12.015582-22.863658-15.591069a9.388694 9.388694 0 0 0-2.164751-0.535107 73.747458 73.747458 0 0 0-46.213776-16.247791 67.204561 67.204561 0 0 0-21.744798 3.332256 10.434584 10.434584 0 0 0-3.089027 1.848551 41.689691 41.689691 0 0 1-9.461662 0.729692 189.719715 189.719715 0 0 1-19.336817-1.191829A1245.339667 1245.339667 0 0 0 840.237242 0z"/><path d="M667.713916 181.060713a4.694347 4.694347 0 0 1-2.72418-0.851307 4.864608 4.864608 0 0 1-1.289121-6.737482c1.702613-2.432304 43.027458-61.585938 151.824418-53.826888 77.347268 5.52133 116.093872 1.094537 141.730356-1.848551a222.215297 222.215297 0 0 1 24.517625-1.99449c25.028409 0 88.171021 11.091306 90.846556 11.553444a4.864608 4.864608 0 1 1-1.702613 9.583278c-0.632399 0-64.966841-11.407506-89.143943-11.407506a218.615487 218.615487 0 0 0-23.398765 1.921521c-26.00133 2.991734-65.28304 7.491496-143.505938 1.897197-53.802565-3.84304-89.849311 9.729216-110.596865 21.890736-22.474489 13.158765-32.39829 27.43639-32.495582 27.582328a4.864608 4.864608 0 0 1-4.061948 2.23772z"/><path d="M451.555057 1019.135392c-66.134347 0-163.402185-5.472684-251.062423-31.619953-110.742803-33.006366-176.147458-89.752019-194.341093-168.704608-0.145938-0.608076-11.675059-55.578147 40.595155-85.738717l0.267553-0.145938s2.286366-1.143183 6.08076-2.772827a4.864608 4.864608 0 0 1 5.472684 7.807696c-21.623183 22.985273-44.146318 54.629549-28.506603 74.866318 18.55848 24.006841 31.109169 27.485036 56.137577 34.417103a413.953824 413.953824 0 0 1 70.366556 25.417577c22.790689 10.5562 72.044846 16.150499 142.411401 16.150499 130.541758 0 302.967791-19.725986 341.665749-39.062803a6.08076 6.08076 0 0 1 0.924275-0.364846c1.191829-0.3162 120.64228-32.665843 161.845511-53.267458 2.432304-1.094537 56.502423-24.809501 114.707458-24.809502 24.760855 0 46.724561 4.378147 65.210071 13.03715a190.181853 190.181853 0 0 0 36.898053 3.453872c28.166081 0 68.104513-5.910499 98.386698-34.052257a4.864608 4.864608 0 0 1 3.307934-1.313444h0.389168a4.864608 4.864608 0 0 1 3.453872 1.848551c6.39696 8.123895 21.03943 29.820048 19.847601 56.940238 5.740238 15.031639 13.329026 29.333587 16.418052 30.890261a4.864608 4.864608 0 0 1 2.651212 3.745748c0.55943 4.499762 13.085796 110.232019-44.31658 134.968551-6.202375 5.326746-49.083895 36.289976-204.191924 36.289977-41.786983 0-88.681805-2.286366-139.443991-6.761806-18.436865-1.629644-37.189929-2.432304-55.675439-2.432304s-37.846651 0.851306-56.575392 2.432304c-37.91962 3.429549-96.392209 7.491496-159.510499 7.491497l-4.353824 0.170261c-8.245511 0.364846-25.393254 1.11886-49.059572 1.11886z" fill="#FFFFFF"/><path d="M55.016529 734.555819c-24.32304 25.7581-46.213777 58.64285-28.798479 81.165986 32.544228 42.127506 49.789264 24.88247 128.279714 61.269739 25.612162 11.869644 80.266033 16.612637 144.47886 16.612637 132.487601 0 305.132542-20.23677 343.854822-39.573587 0 0 120.64228-32.568551 162.769786-53.510689 0 0 54.678195-24.32304 112.518385-24.32304 21.671829 0 43.781473 3.405226 63.653397 12.818242a188.868409 188.868409 0 0 0 38.454727 3.672779c29.528171 0 70.390879-6.299667 101.718955-35.414347 5.740238 7.296912 20.309739 28.530926 18.753064 54.702518 0 0 11.504798 30.647031 19.166556 34.490071 0 0 13.401995 107.215962-42.127506 130.201235 0 0-35.560285 35.584608-201.589359 35.584608-38.795249 0-84.741473-1.945843-139.006176-6.737482q-28.020143-2.432304-56.113254-2.432304-28.530926 0-57.013207 2.55392c-39.816817 3.59981-97.292162 7.467173-159.072684 7.467173-2.724181 0-22.766366 1.191829-53.510689 1.191829-119.377482 0-399.505938-18.193634-440.660522-196.505843 0 0-11.504798-51.710784 38.284465-80.436295 0 0 2.116105-1.045891 5.83753-2.651211m0-9.729216a10.142708 10.142708 0 0 0-3.84304 0.778337c-3.91601 1.702613-6.226698 2.845796-6.323991 2.894442l-0.535107 0.291876c-28.725511 16.56399-38.916865 40.351924-42.370736 57.402375a88.56019 88.56019 0 0 0-0.437815 33.468504c18.655772 80.874109 85.130641 138.835914 197.721996 172.353064C287.325888 1018.454347 385.080187 1024 451.555057 1024c23.76361 0 40.96-0.705368 49.229833-1.045891l4.15924-0.145938c63.239905 0 121.931401-4.086271 159.948314-7.515819 18.582803-1.653967 37.457482-2.432304 56.137577-2.432304s36.946698 0.826983 55.261948 2.432304c50.8838 4.499762 97.948884 6.786128 139.857482 6.786128 69.807126 0 125.604181-6.129406 165.834489-18.193634 25.271639-7.588789 36.898052-15.469454 40.96-18.753065 59.980618-26.755344 47.138052-135.138812 46.578623-139.784513a9.729216 9.729216 0 0 0-4.864609-7.296912c-2.870119-2.553919-9.218432-15.031639-14.08304-27.582327 0.851306-28.23905-14.277625-50.664893-20.942138-59.129312a9.729216 9.729216 0 0 0-6.907743-3.672779h-0.729691a9.729216 9.729216 0 0 0-6.64019 2.602566c-29.187648 27.12019-67.788314 32.811781-95.078765 32.811781a187.068504 187.068504 0 0 1-35.341378-3.234964c-19.044941-8.804941-41.51943-13.256057-66.766746-13.256057-59.226603 0-114.172352 24.104133-116.48304 25.150023l-0.389169 0.170262c-40.789739 20.407031-159.753729 52.610736-160.969881 52.926936a10.215677 10.215677 0 0 0-1.799905 0.705368c-17.318005 8.659002-67.228884 18.412542-133.533492 26.074299a1879.125131 1879.125131 0 0 1-205.967506 12.47772c-68.663943 0-118.526176-5.569976-140.368266-15.712684A419.742708 419.742708 0 0 0 87.58508 842.574442c-24.712209-6.859097-35.9981-9.99677-53.510688-32.738813-14.228979-18.412542 11.553444-50.859477 28.190403-68.542327a9.729216 9.729216 0 0 0-7.248266-16.466699z m0 19.458432z"/><path d="M164.29995 879.302233a4.864608 4.864608 0 0 1-4.451117-2.870119 4.864608 4.864608 0 0 1 2.432304-6.421283c7.515819-3.429549 185.219952-83.987458 241.162946-83.987458 24.32304 0 50.64057 13.985748 78.028313 41.543753a281.368931 281.368931 0 0 1 33.541473 40.911354 4.864608 4.864608 0 0 1-8.172542 5.2781c-0.486461-0.778337-51.078385-78.00399-103.397244-78.003991-53.851211 0-235.325416 82.260523-237.149644 83.111829a4.864608 4.864608 0 0 1-1.994489 0.437815z"/><path d="M465.492159 824.964561a4.864608 4.864608 0 0 1-1.532352-9.485986c232.285036-77.347268 276.820523-110.426603 289.663088-130.590404 11.04266-17.390974-12.47772-182.033634-19.847601-222.48285a2.602565 2.602565 0 0 0-1.216152-1.43506c-12.599335-8.634679-72.969121-1.313444-107.969976 5.326746a4.864608 4.864608 0 0 1-1.824228-9.558955c0.24323 0 23.666318-4.451116 49.083895-7.296912 52.87829-5.740238 62.923705 1.143183 66.207316 3.405226a11.942613 11.942613 0 0 1 5.302423 7.710404c0.364846 2.018812 34.344133 204.508124 18.461188 229.43924-14.593824 22.887981-60.953539 56.769976-294.770927 134.603705a4.378147 4.378147 0 0 1-1.556674 0.364846z"/><path d="M926.146221 773.910499h-0.55943a4.864608 4.864608 0 0 1-4.280856-5.375392c13.207411-114.756105 0.413492-226.204276-12.623657-299.173397-15.5181-87.003515-35.341378-144.332922-42.030214-154.354014-5.107838-7.661758-13.329026-9.729216-25.125701-6.688836a68.858527 68.858527 0 0 0-17.926081 7.880665 4.864608 4.864608 0 0 1-3.064703 0.778337c-19.653017-1.508029-126.72304 31.230784-166.32095 43.951734a4.864608 4.864608 0 1 1-2.967411-9.242755c5.740238-1.872874 138.64133-44.462518 168.218147-44.462518h0.243231a78.125606 78.125606 0 0 1 19.190879-8.391449c16.004561-4.378147 28.433634-0.705368 35.973776 10.604846 17.780143 26.755344 80.80114 246.441045 56.210547 460.118955a4.864608 4.864608 0 0 1-4.937577 4.353824z"/><path d="M825.278572 790.498812h-0.316199a4.864608 4.864608 0 0 1-4.548409-5.156484C834.132159 566.726841 778.359427 322.207316 777.702705 319.750689a4.864608 4.864608 0 0 1 9.461663-2.189074c0.583753 2.432304 56.769976 248.362565 42.954489 468.461758a4.864608 4.864608 0 0 1-4.840285 4.475439z"/><path d="M847.363893 364.261853l6.226698-10.994015 1.143183 7.296913-4.864608 7.856342v0.291876l7.053682 6.348314 1.118859 7.12665-9.145463-8.853586-6.518575 11.650736-1.167505-7.296912 5.059192-8.342803v-0.291876l-7.418527-6.834775-1.11886-7.175297zM859.50109 408.456817l-1.410736-9.048171-13.134442 2.043135-0.972922-6.251021 13.134442-2.067458-1.386413-8.999525 2.602565-0.389169 3.794394 24.32304zM852.909546 435.382423l-2.602565 0.413491-3.210642-20.528646 15.76133-2.432304 3.064704 19.628694-2.578243 0.389169-2.091781-13.401996-3.818718 0.608076 1.945844 12.429074-2.432304 0.389169-1.945844-12.429074-4.256532 0.656722zM867.041232 439.590309l1.653967 10.604845c1.508029 9.729216 0.462138 13.03715-3.259287 13.59658s-5.983468-2.870119-7.296912-11.91829l-0.681046-4.353824-5.107838 0.778337-0.972922-6.251021z m-6.713159 11.139952c0.826983 5.351069 1.775582 7.029359 4.061948 6.664513s2.602565-2.262043 1.775582-7.588788l-0.55943-3.575487-5.83753 0.899952z" fill="#FFFFFF"/><path d="M1016.360377 417.067173c-45.094917 0-105.99981-2.699857-115.801995-3.137672a4.864608 4.864608 0 0 1 0.437815-9.729216c39.354679 1.799905 144.746413 5.472684 159.802375 0.972922a4.864608 4.864608 0 0 1 2.79715 9.315724c-6.421283 1.92152-24.979762 2.578242-47.235345 2.578242zM931.716197 627.753349a4.864608 4.864608 0 0 1-0.535107-9.729216c1.094537 0 109.04019-12.16152 138.64133-25.028409a4.864608 4.864608 0 0 1 3.891687 8.926556c-30.96323 13.547933-136.96304 25.271639-141.462803 25.7581z"/><path d="M1136.881042 558.311069a4.864608 4.864608 0 0 1-3.137672-1.143183l-63.775012-53.826888c-25.636485-4.864608-137.254917-26.585083-150.80285-38.114205a4.864608 4.864608 0 0 1-1.702613-3.697102v-22.985273a4.864608 4.864608 0 0 1 1.970166-3.891686 4.864608 4.864608 0 0 1 2.894442-0.972922 4.864608 4.864608 0 0 1 1.410737 0.218907c35.365701 10.604846 130.687696 38.138527 146.692256 38.138528h16.588314a4.864608 4.864608 0 0 1 3.016057 1.04589c5.740238 4.548409 56.210546 44.657102 62.145368 52.586414a4.864608 4.864608 0 0 1 0.924275 2.140427c0.583753 3.575487 1.970166 12.16152 1.970167 14.204656a4.864608 4.864608 0 0 1-0.826984 2.699857c-2.043135 3.137672-9.631924 13.59658-17.366651 13.59658z" fill="#1B1D1C"/><path d="M922.400472 438.544418s127.866223 38.357435 148.102993 38.357435a9.972447 9.972447 0 0 0 1.264798 0h15.323516s55.529501 44.049026 61.269738 51.686461c0 0 1.92152 11.504798 1.921521 13.426318 0 0-7.661758 11.480475-13.401996 11.480475l-64.772256-54.653872s-136.209026-25.782423-149.708314-37.262898v-23.033919m0-9.729216a9.729216 9.729216 0 0 0-9.729216 9.729216v22.985273a9.729216 9.729216 0 0 0 3.405226 7.296912c3.307933 2.845796 10.215677 8.756295 84.109073 25.052732 29.941663 6.591544 59.032019 12.16152 67.59373 13.912779l62.826413 52.999905a9.729216 9.729216 0 0 0 6.275344 2.286366c9.534632 0 17.561235-9.9238 21.501568-15.834299a9.583278 9.583278 0 0 0 1.629644-5.375392 110.061758 110.061758 0 0 0-2.043136-15.007316 9.729216 9.729216 0 0 0-1.824228-4.256532c-6.032114-8.026603-49.740618-42.954489-63.020997-53.510689a9.729216 9.729216 0 0 0-6.032114-2.091782h-16.539668c-13.693872 0-96.392209-23.27715-145.305843-37.943943a9.99677 9.99677 0 0 0-2.79715-0.413491z"/><path d="M1136.881042 558.311069a4.864608 4.864608 0 0 1-3.137672-1.143183l-64.115534-54.094442a4.864608 4.864608 0 0 1 0.24323-7.613111 39.500618 39.500618 0 0 0 13.183088-19.701663 4.864608 4.864608 0 0 1 3.234964-3.113349 4.548409 4.548409 0 0 1 1.386414-0.194585 4.864608 4.864608 0 0 1 3.016057 1.045891c13.061473 10.361615 55.942993 44.778717 61.561615 52.124276a4.864608 4.864608 0 0 1 0.924275 2.140427c0.583753 3.575487 1.970166 12.16152 1.970167 14.204656a4.864608 4.864608 0 0 1-0.826984 2.699857c-2.116105 3.186318-9.704893 13.645226-17.43962 13.645226z" fill="#0F1110"/><path d="M1087.675532 477.315344c5.83753 4.621378 55.286271 44.024703 60.685985 51.224323 0 0 1.92152 11.504798 1.921521 13.426319 0 0-7.661758 11.480475-13.401996 11.480475L1072.668216 499.352019a44.851686 44.851686 0 0 0 14.910024-22.036675m0-9.729216a9.729216 9.729216 0 0 0-9.242756 6.615867 34.538717 34.538717 0 0 1-11.480475 17.342328 9.729216 9.729216 0 0 0-0.462138 15.250546l64.115535 54.094442a9.729216 9.729216 0 0 0 6.275344 2.286366c4.086271 0 12.331781-2.067458 21.501568-15.834299a9.583278 9.583278 0 0 0 1.629644-5.375392 110.061758 110.061758 0 0 0-2.043136-15.007316 9.729216 9.729216 0 0 0-1.824228-4.256532c-5.472684-7.296912-41.470784-36.484561-62.437244-53.024228a9.729216 9.729216 0 0 0-6.032114-2.091782z"/><path d="M988.486173 477.92342l0.486461-2.018812a20.455677 20.455677 0 0 0 4.353824 1.556675c2.140428 0.510784 3.089026 0.3162 3.380903-0.899953s-0.170261-1.556675-2.602566-2.651211c-3.113349-1.386413-3.988979-2.432304-3.478194-4.426794s2.724181-2.991734 6.32399-2.140427a17.342328 17.342328 0 0 1 3.84304 1.386413l-0.462137 1.92152a19.458432 19.458432 0 0 0-3.745749-1.386413c-1.872874-0.437815-2.79715-0.340523-3.089026 0.851306s0 1.264798 2.432304 2.310689c3.453872 1.556675 4.207886 2.578242 3.672779 4.864608s-2.602565 3.113349-6.664513 2.140428a22.547458 22.547458 0 0 1-4.451116-1.508029zM1013.806458 473.691211l-4.232209-1.021567-2.432304 9.996769-2.918765-0.705368 2.432304-9.996769-4.207886-0.997245 0.486461-1.970166 11.35886 2.699857zM1021.881707 482.812352l-6.469928-1.532352-2.23772 2.821473-3.016057-0.729692 8.659002-10.580522 3.940333 0.924275 2.894442 13.35335-3.089026-0.729692z m-0.413491-2.091782l-1.045891-5.424038h-0.267553l-3.429549 4.280855zM1030.638002 483.104228l-3.867363-8.415772 3.405225 0.80266 2.432304 5.886176h0.121615l4.864609-4.134917 3.28361 0.802661-7.296912 5.715914-1.167506 4.864608-2.943088-0.705368zM1045.134534 491.471354l0.486461-2.018812a20.455677 20.455677 0 0 0 4.353824 1.556674c2.140428 0.510784 3.089026 0.3162 3.380903-0.899952s-0.170261-1.556675-2.602566-2.675535c-3.113349-1.36209-3.964656-2.432304-3.478194-4.426793s2.724181-2.967411 6.32399-2.116105a17.342328 17.342328 0 0 1 3.843041 1.386414l-0.437815 1.92152a17.026128 17.026128 0 0 0-3.770071-1.386413c-1.872874-0.437815-2.79715-0.364846-3.089027 0.826983s0 1.289121 2.432304 2.432304c3.453872 1.556675 4.232209 2.578242 3.67278 4.864608s-2.602565 3.113349-6.640191 2.140428a24.006841 24.006841 0 0 1-4.475439-1.605321zM1070.454819 487.214822l-4.207886-0.997245-2.432304 9.99677-2.943088-0.705368 2.432304-9.99677-4.183563-0.997245 0.462138-1.994489 11.35886 2.724181z" fill="#FFFFFF"/><path d="M1202.772159 700.090071c-9.12114 0-13.085796-7.296912-14.593824-10.094061a47.84342 47.84342 0 0 0-5.03487-3.11335c-7.029359-4.037625-17.634204-10.142708-22.060997-20.455677a49.375772 49.375772 0 0 0-3.35658-6.129406c-7.564466-12.599335-18.996295-31.619952-18.582803-110.913064a4.864608 4.864608 0 0 1 1.11886-3.089026l6.251021-7.467173a4.864608 4.864608 0 0 1 3.721426-1.726936h0.389168a4.864608 4.864608 0 0 1 3.794394 2.432304c9.461663 15.785653 36.362945 58.740143 46.846176 67.739667 11.845321 10.142708 29.820048 42.346413 29.430879 64.334442-0.145938 8.731971-2.991734 15.372162-8.488741 19.750309-7.296912 5.934822-13.791164 8.804941-19.458432 8.80494z m-36.752114-100.527126c5.399715 51.881045 21.720475 61.148124 28.23905 64.845226a15.250546 15.250546 0 0 1 3.502517 2.432304 19.11791 19.11791 0 0 0 6.761806 3.016057c-3.161995-14.228979-21.355629-44.900333-38.503373-70.293587z" fill="#1B1D1C"/><path d="M1150.283038 541.965986s34.465748 57.426698 47.867743 68.931496 40.230309 61.269739 21.063753 76.593254c-7.296912 5.788884-12.526366 7.734727-16.442375 7.734727-6.494252 0-9.169786-5.351069-10.361615-7.734727-1.92152-3.818717-21.063753-9.583278-26.755345-22.985273s-22.036675-21.452922-21.550214-115.096627l6.226699-7.44285m59.372541 134.044275c3.818717-19.166556-49.789264-93.83829-49.789263-93.83829 3.818717 80.436295 30.622708 84.255012 34.465748 88.07373s15.323515 5.764561 15.323515 5.76456m-59.372541-143.773491a9.729216 9.729216 0 0 0-7.467174 3.478194l-6.226698 7.467174a9.583278 9.583278 0 0 0-2.262043 6.178052c-0.389169 74.428504 9.315724 96.854347 19.288171 113.44266a46.043515 46.043515 0 0 1 3.04038 5.545654c5.059192 11.796675 16.539667 18.388219 24.128456 22.742042 1.216152 0.705368 2.772827 1.605321 3.697102 2.189074 4.329501 7.75905 10.458907 11.675059 18.290927 11.675059 6.859097 0 14.228979-3.210641 22.523135-9.875154 4.597055-3.672779 10.094062-10.702138 10.312969-23.447411 0.437815-25.344608-19.896247-58.521235-31.109168-68.104513-8.902233-7.613112-32.860428-44.87601-45.873254-66.547839a9.729216 9.729216 0 0 0-7.588789-4.694346z m45.435439 127.404085c-4.864608-2.894442-15.153254-10.288646-21.404275-38.552019a337.847031 337.847031 0 0 1 21.404275 38.552019zM1211.309546 666.451306z"/></svg>