<?xml version="1.0" ?><svg data-name="Layer 1" height="88" id="Layer_1" viewBox="0 0 88 88" width="88" xmlns="http://www.w3.org/2000/svg"><title/><path d="M53.93,13l11.34,2.83a6,6,0,0,1,4.19,5L74.87,73h0v.1a1,1,0,0,1-.13.51l-.07.11a1,1,0,0,1-.68.38h-.07L61,75h-.11a1,1,0,0,1-.94-.93V74h0l-.37-5H46a2,2,0,0,1-1.74-1h-.53A2,2,0,0,1,42,69H28.54l-.49,4.48V74a1,1,0,0,1-.94.93H27l-12.94-.86H14A1,1,0,0,1,13.13,73l5.43-52.54a6,6,0,0,1,4.09-4.77L34.15,13l.3.84c1.62,4.61,5.1,7.25,9.55,7.25,4.27,0,7.86-2.72,9.61-7.26l.32-.83Zm5.49,3.43C57.75,21.71,53.86,26.21,48,27.61V66H63V44h2V67a1,1,0,0,1,0,.24V68a1,1,0,0,1-1,1H61.56l.28,3.75,10.85-1.43L67.47,21.05a4,4,0,0,0-2.75-3.29Zm-30.86-.07-5.39,1.25a4,4,0,0,0-2.63,3.14V21L15.25,71.88l11,.75L26.56,69H23a1,1,0,0,1-1-.89V67a1,1,0,0,1,1-1H40V27.59A16.65,16.65,0,0,1,28.56,16.37ZM23,39a1,1,0,0,1,1,1l.18,22.08a1,1,0,0,1-2-.08L22,39.93A1,1,0,0,1,23,39ZM44,58a2,2,0,1,0,2,2A2,2,0,0,0,44,58Zm15-7a1,1,0,0,1,1,1v1a1,1,0,0,1-1,1H53a1,1,0,0,1-1-1V52a1,1,0,0,1,1-1ZM35,51a1,1,0,0,1,1,1v1a1,1,0,0,1-1,1H29a1,1,0,0,1-1-1V52a1,1,0,0,1,1-1Zm9-2a2,2,0,1,0,2,2A2,2,0,0,0,44,49Zm0-9a2,2,0,1,0,2,2A2,2,0,0,0,44,40Zm20-1a1,1,0,0,1,1,1v2H63V40A1,1,0,0,1,64,39Zm-5-3a1,1,0,0,1,1,1v1a1,1,0,0,1-1,1H53a1,1,0,0,1-1-1V37a1,1,0,0,1,1-1ZM35,36a1,1,0,0,1,1,1v1a1,1,0,0,1-1,1H29a1,1,0,0,1-1-1V37a1,1,0,0,1,1-1Zm9-5a2,2,0,1,0,2,2A2,2,0,0,0,44,31ZM32.88,15.36l-1.41.33c1.68,4.8,5.33,8.41,10.2,9.31h.48A2,2,0,0,1,44,27a2,2,0,0,1,2-2l.31-.05a13.64,13.64,0,0,0,10.51-9.16l-1.68-.42C53,20.16,48.79,23.1,44,23.1,39,23.1,34.91,20.22,32.88,15.36Z"/></svg>