<?xml version="1.0" ?><!DOCTYPE svg  PUBLIC '-//W3C//DTD SVG 1.1//EN'  'http://www.w3.org/Graphics/SVG/1.1/DTD/svg11.dtd'><svg class="icon" height="84.73px" version="1.1" viewBox="0 0 2417 1024" width="200px" xmlns="http://www.w3.org/2000/svg"><path d="M1060.394641 1013.966845c-17.783887 0-29.196007-1.046111-35.853076-3.280985a56.489993 56.489993 0 0 1-31.145577-26.105224c-5.70606-8.654191-8.036034-11.649872-15.691665-11.649872a29.909264 29.909264 0 0 0-3.471186 0c-5.135454 8.939494-18.354493 27.151335-42.034642 30.52742h-202.327374a9.5101 9.5101 0 0 1-8.131135-4.517297 44.459717 44.459717 0 0 0-35.948178-19.353053c-12.172928 0-25.582169 4.992802-39.799767 14.788205a9.5101 9.5101 0 0 1-5.420757 1.664267h-36.946738c-1.997121 0-14.550453 0.713257-33.000047 0.713258-44.554818 0-125.77107-3.661388-168.994474-27.959694a9.5101 9.5101 0 0 1-4.75505-8.321337c0-5.848711-5.373206-5.848711-7.275226-5.848711a25.534618 25.534618 0 0 0-3.994242 0.380404h-1.569166a9.5101 9.5101 0 0 1-8.987045-6.466868c-2.567727-7.60808-9.224797-18.639796-14.550452-18.639796a17.260831 17.260831 0 0 0-10.223358 6.989923 9.5101 9.5101 0 0 1-7.132575 3.233434h-1.188762l-24.250755-3.043232-7.845832 10.46111a9.5101 9.5101 0 0 1-7.65563 3.80404 9.224797 9.224797 0 0 1-4.136894-0.95101l-145.029022-70.660042a9.5101 9.5101 0 0 1-5.087904-10.841513 27.864593 27.864593 0 0 0 0.475505-11.697423 12.030276 12.030276 0 0 0-3.090782 0.665707 9.747852 9.747852 0 0 1-3.043232 0.523055 9.5101 9.5101 0 0 1-6.704621-2.805479 27.959694 27.959694 0 0 0-18.021639-6.752171 30.432319 30.432319 0 0 0-9.5101 1.616717 9.177246 9.177246 0 0 1-2.995681 0.475505 9.5101 9.5101 0 0 1-5.135454-1.474066 243.173253 243.173253 0 0 1-47.550499-42.795449c-30.907824-36.043278-45.505828-75.747945-42.224843-114.834455 7.227676-87.112515 18.449594-121.776828 43.223403-129.955515 7.275226-17.688786 36.328581-72.657163 116.688925-72.657162 4.75505 0 9.177246 0 13.884746 0.523055s8.60664 0.427954 13.599443 0.427955c91.059206 0 303.562387-49.262317 417.731135-75.700395 26.67583-6.229115 47.550499-11.079266 60.674437-13.837195 69.56638-14.645554 657.956257-297.666125 715.539912-326.481728 9.5101-4.75505 20.351614-10.651312 31.763733-16.785326C1464.573884 35.187369 1512.124383 9.652751 1545.885238 9.652751c21.968331 0 33.285349 10.651312 38.753657 21.017321a48.311307 48.311307 0 0 1 23.394845 21.255073c12.41068 21.730578 12.220478 53.541862-0.523055 94.625493C1659.530931 186.778361 1787.917279 278.075319 1838.178156 278.075319c71.325749 0 146.645739-5.468307 162.242303-45.981332 2.615277-6.847272 5.515858-15.358811 8.55909-24.345856 16.690225-49.452519 42.082192-124.154353 97.526074-144.173114a44.459717 44.459717 0 0 1 45.648479 9.5101 442.457395 442.457395 0 0 1 134.23506 275.602694c5.468307 15.26371 53.827165 156.631344 26.961133 282.449965 9.5101 12.268029 32.334339 44.840121 26.580729 66.000093a22.491386 22.491386 0 0 1-8.131136 12.220478c0.760808 3.80404 2.187323 7.465428 4.041793 8.083585a9.5101 9.5101 0 0 1 4.75505 3.566287c2.472626 3.566287 58.629765 85.115394 50.688832 147.406548 9.5101 10.318458 18.259392 23.442396 13.266589 33.285349a9.5101 9.5101 0 0 1-3.80404 3.994242c-7.085024 4.041792-174.985837 98.762387-288.964383 98.762387-6.229115 0-12.268029-0.285303-17.974089-0.855909a9.5101 9.5101 0 0 1-8.55909-9.5101s0-9.5101-5.087903-9.5101a12.743534 12.743534 0 0 0-2.139773 0.237753c-7.940933 1.616717-13.979847 2.567727-18.354493 3.090782v6.181565a9.5101 9.5101 0 0 1-9.082145 9.5101c-1.474065 0-145.884932 6.419317-273.130067 6.466868-168.851823 0-189.821593-11.317019-196.716415-15.025958a9.5101 9.5101 0 0 1-3.661389-3.471186 44.269515 44.269515 0 0 0-8.60664-10.46111 8.178686 8.178686 0 0 1-1.85447 0 9.5101 9.5101 0 0 1-4.089343-0.95101 9.5101 9.5101 0 0 1-5.183004-6.514419s-3.613838-14.930857-13.789645-14.930856a15.691665 15.691665 0 0 0-4.469747 0.665707c-0.713257 16.832877-9.082145 40.750778-38.325702 43.984211h-0.808358c-0.332853 0-33.047597 0.95101-67.188856 0.95101-71.087996 0-78.696076-3.85159-82.357464-5.658509-11.41212-5.70606-12.505781-19.0202-13.31414-29.433759-1.141212-14.26515-2.425075-14.26515-4.75505-14.26515-4.75505 0-7.893383 4.422196-13.837195 13.837195-7.132575 11.317019-16.880427 26.818482-37.659996 27.103785-11.221918 1.759368-151.020385 18.06919-220.444114 18.06919z" fill="#1B1D1C"/><path d="M1545.885238 19.162851c14.645554 0 26.057674 5.420757 31.953935 19.0202 0 0 52.067797 11.174367 18.592245 111.601021 0 0 174.795635 137.611145 241.746738 137.611145s152.494451-3.708939 171.181797-52.305549c16.737776-43.461156 39.466914-140.98723 100.569306-163.003111a34.236359 34.236359 0 0 1 11.697423-2.044672 35.520223 35.520223 0 0 1 24.250755 9.5101 434.183608 434.183608 0 0 1 131.286928 270.704992s55.776736 152.494451 26.010123 282.640167c0 0 48.358858 59.533225 18.592245 70.660042 0 0 0 18.592245 11.174367 22.348735 0 0 59.533225 85.590899 48.358858 145.029022 0 0 18.592245 18.592245 14.883306 26.057674 0 0-171.514651 97.478523-284.256884 97.478523a165.380636 165.380636 0 0 1-17.023079-0.808358s0-19.0202-14.598003-19.0202a20.446715 20.446715 0 0 0-3.994242 0.427954 155.918087 155.918087 0 0 1-26.010123 3.708939v14.883307s-144.173114 6.466868-272.702113 6.466867c-89.965544 0-172.323009-3.185883-192.199117-13.884745 0 0-9.224797-15.358811-16.500024-15.358812a4.75505 4.75505 0 0 0-2.139772 0.475505s-4.75505-22.396285-23.061992-22.396285a31.668632 31.668632 0 0 0-14.26515 3.80404s3.708939 37.18449-29.766612 40.89343c0 0-32.524541 0.95101-66.903553 0.95101s-70.660042-0.95101-78.12547-4.75505c-14.883306-7.417878 0-44.649919-22.301184-44.649919s-22.348735 40.94098-52.067797 40.94098c0 0-148.833062 17.641235-220.06371 17.641235a127.720641 127.720641 0 0 1-32.857395-2.757929c-30.194567-10.080706-24.108103-38.040399-49.832923-38.040399a50.879034 50.879034 0 0 0-9.5101 1.046111s-11.126817 26.057674-37.18449 29.766612h-200.94841a54.397771 54.397771 0 0 0-44.079313-23.77525c-12.458231 0-27.531739 4.279545-45.220524 16.452473h-37.184491s-13.028837 0.713257-32.809844 0.713258c-44.459717 0-123.108242-3.566287-164.286975-26.770931a15.549013 15.549013 0 0 0-16.785326-15.358812 34.664314 34.664314 0 0 0-5.563408 0.475505s-8.368888-25.106664-23.537497-25.106663c-5.040353 0-10.841514 2.805479-17.355933 10.223357l-29.766612-3.280984-11.126817 14.883306L156.935156 871.505549s5.896262-23.489947-8.463988-23.489946a19.685907 19.685907 0 0 0-6.419318 1.188762 37.232041 37.232041 0 0 0-24.726259-9.5101 39.752217 39.752217 0 0 0-12.458231 2.092222s-92.961226-59.485674-85.590899-148.737961 18.592245-118.876248 40.89343-122.775389c0 0 20.351614-71.325749 109.366148-71.325749 4.231994 0 8.654191 0 13.219039 0.475505s9.082145 0.475505 14.265149 0.475505c113.693244 0 412.785883-75.510193 480.260042-89.727792 70.660042-14.883306 658.289111-297.523473 718.012538-327.290086C1439.37212 61.149942 1505.229561 19.162851 1545.885238 19.162851m0-19.0202c-36.423682 0-84.687439 26.152775-127.292687 49.214767-11.317019 6.134014-22.015881 11.935175-31.47843 16.642675-78.363223 39.181611-648.255955 312.026376-713.257488 325.720919-12.981286 2.710378-34.141258 7.60808-60.912189 13.837196-113.645693 26.390527-325.578268 75.462642-415.543813 75.462642-4.75505 0-9.082145 0-12.886185-0.427955-4.75505-0.332853-9.842953-0.523055-14.598003-0.523055-73.227769 0-110.982865 44.412166-124.154354 74.844486-29.433759 13.31414-38.706106 58.154261-45.268075 136.469932-8.273787 99.570745 90.060645 163.716369 94.24509 166.426747a19.0202 19.0202 0 0 0 10.270907 2.995682 19.0202 19.0202 0 0 0 6.038914-0.95101 19.448154 19.448154 0 0 1 6.419317-1.141212 18.306942 18.306942 0 0 1 11.41212 4.136893 17.023079 17.023079 0 0 0 9.5101 5.230555 19.0202 19.0202 0 0 0 10.366009 20.589366l145.029022 70.660042a19.0202 19.0202 0 0 0 23.77525-5.70606l4.75505-6.038913 19.020199 2.329974h2.377525a19.0202 19.0202 0 0 0 14.26515-6.466868 28.149896 28.149896 0 0 1 2.615278-2.662828 41.511586 41.511586 0 0 1 5.563408 11.221918 19.0202 19.0202 0 0 0 18.021639 12.886186 17.260831 17.260831 0 0 0 3.090783 0h0.380404a18.259392 18.259392 0 0 0 9.510099 12.743533c42.795449 24.108103 118.067889 29.196007 173.606873 29.196007 18.06919 0 30.574971-0.570606 33.285349-0.713258h36.708986a19.0202 19.0202 0 0 0 10.793963-3.376085c12.648433-8.654191 24.203204-13.076387 34.426561-13.076387a35.139819 35.139819 0 0 1 27.912143 14.930856 18.259392 18.259392 0 0 0 16.16717 8.939494h200.805758a17.308382 17.308382 0 0 0 2.710379 0 68.330067 68.330067 0 0 0 46.076433-30.432319c1.331414 0.427954 2.377525 1.90202 5.801161 7.180125a66.000093 66.000093 0 0 0 36.090829 29.909264c5.278105 1.759368 14.26515 3.756489 38.896309 3.75649 69.281077 0 207.034873-15.976968 221.300023-17.688786 25.582169-0.570606 37.755096-19.876109 45.077873-31.525981 0.332853-0.570606 0.760808-1.188762 1.188762-1.85447 0.95101 11.45967 3.090782 27.484189 18.354493 35.139819 5.325656 2.615277 13.31414 6.65707 86.63701 6.65707 34.236359 0 67.141305-0.95101 67.474158-0.95101h1.569167a50.260878 50.260878 0 0 0 45.030322-40.417924 20.96977 20.96977 0 0 1 1.283864 3.518737 18.259392 18.259392 0 0 0 10.223357 13.076387 17.070629 17.070629 0 0 0 6.609519 1.759369 55.158579 55.158579 0 0 1 3.994242 5.515857 19.0202 19.0202 0 0 0 7.275227 6.942373c13.932296 7.512979 49.452519 16.16717 201.233712 16.16717 127.482888 0 272.083956-6.419317 273.510472-6.466868a19.0202 19.0202 0 0 0 18.069189-16.975528l6.704621-1.188763a18.449594 18.449594 0 0 0 17.118179 18.06919 186.302856 186.302856 0 0 0 19.0202 0.90346c116.451173 0 286.491758-95.909357 293.671883-99.856049a19.400604 19.400604 0 0 0 7.60808-8.036034c5.70606-11.364569 1.664267-25.154214-11.887625-40.94098 5.325656-65.144184-50.260878-145.932482-52.733503-149.498769a20.92222 20.92222 0 0 0-4.75505-4.75505 32.334339 32.334339 0 0 0 5.420757-11.126817c6.276666-23.109543-12.648433-53.541862-25.534619-70.850244 24.868911-124.629858-20.732018-262.050801-27.817042-282.212212A452.395449 452.395449 0 0 0 2158.811172 66.237845a54.397771 54.397771 0 0 0-37.232041-14.788205 53.256559 53.256559 0 0 0-18.11674 3.185884C2043.501212 76.22345 2017.300887 153.540562 1999.944954 204.609798c-2.995681 8.891943-5.848711 17.308382-8.416438 23.77525-15.358811 39.894869-112.028976 39.894869-153.35036 39.894868s-152.4469-73.893476-219.683306-125.533317c11.602322-40.750778 10.889064-72.894915-2.187323-95.814256a59.05772 59.05772 0 0 0-24.916462-23.77525c-9.5101-14.978407-25.296866-23.157093-45.505827-23.157093z"/><path d="M659.068428 877.30671a9.5101 9.5101 0 0 1-7.275226-15.501463c1.283863-1.616717 131.714883-162.765359 264.143023-323.343394 269.373578-326.434177 284.066682-331.950035 290.343348-334.32756a401.659067 401.659067 0 0 0 35.615323-19.0202c55.681635-31.716183 148.880613-84.877641 213.977247-84.877641a82.309914 82.309914 0 0 1 36.994288 7.750732c71.325749 35.567773 83.403576 48.453959 85.590899 51.592291a9.5101 9.5101 0 0 1 0 10.508661c-102.281124 155.870536-257.723706 419.347852-239.559415 462.761458a3.376085 3.376085 0 0 0 2.85303 2.472626 18.06919 18.06919 0 0 0 2.710378 0c26.818482 0 129.907964-35.044718 468.895473-201.89942 203.658788-100.236452 397.950128-201.804319 399.899698-202.802879a9.5101 9.5101 0 0 1 4.374646-1.093661 9.5101 9.5101 0 0 1 9.5101 8.559089l17.355932 171.181798a9.5101 9.5101 0 0 1-3.471187 8.368887L1661.908456 886.341305a9.5101 9.5101 0 0 1-5.943813 2.092222z" fill="#FFFFFF"/><path d="M1455.824592 109.746552a72.514511 72.514511 0 0 1 32.762294 6.752171c74.368981 37.18449 81.834409 48.358858 81.834409 48.358858s-304.988902 464.901231-230.619921 479.784536a25.201765 25.201765 0 0 0 4.75505 0.380404c97.478523 0 873.169817-405.79596 873.169817-405.79596l17.355932 171.181797-579.11753 468.515069-996.801114-11.126817S1179.889046 224.343255 1209.655658 213.216438c25.915022-9.747852 163.193313-103.469886 246.168934-103.469886m0-19.0202c-67.569259 0-162.147202 53.922266-218.732296 86.113954C1222.066338 185.589598 1207.801189 193.530532 1203.046139 195.385001c-9.272347 3.471186-23.347295 8.749292-294.385141 337.18059-132.38059 160.482935-262.85916 321.631577-264.143023 323.343394a19.0202 19.0202 0 0 0 14.550453 31.002926l996.753564 11.126817h0.237752a19.0202 19.0202 0 0 0 11.935176-4.231995l578.879777-468.70527a19.0202 19.0202 0 0 0 7.037474-16.690225l-17.355933-171.181798a19.0202 19.0202 0 0 0-19.020199-17.118179 18.687346 18.687346 0 0 0-8.796843 2.187323c-1.94957 0.99856-196.145809 102.518876-399.709496 202.707778-341.745438 168.186116-436.513583 198.713536-462.00065 200.758207-0.618156-12.268029 7.085024-62.386255 110.031855-240.510425 62.291154-107.844532 128.386348-209.222196 129.242257-210.078105a19.0202 19.0202 0 0 0 0-20.96977c-8.463989-12.695983-53.113908-36.804086-89.109635-54.825726a91.677362 91.677362 0 0 0-41.273834-8.749292z"/><path d="M1060.394641 1013.966845c-17.783887 0-29.196007-1.046111-35.853076-3.280985a56.489993 56.489993 0 0 1-31.145577-26.105224c-5.70606-8.654191-8.036034-11.649872-15.691665-11.649872a29.909264 29.909264 0 0 0-3.471186 0c-5.135454 8.939494-18.354493 27.151335-42.034642 30.52742h-202.327374a9.5101 9.5101 0 0 1-8.131135-4.517297 44.459717 44.459717 0 0 0-35.948178-19.353053c-12.172928 0-25.582169 4.992802-39.799767 14.788205a9.5101 9.5101 0 0 1-5.420757 1.664267h-36.946738c-1.997121 0-14.26515 0.713257-33.000047 0.713258-44.554818 0-125.77107-3.661388-168.994474-27.959694a9.5101 9.5101 0 0 1-4.75505-8.321337c0-5.848711-5.373206-5.848711-7.275226-5.848711a25.534618 25.534618 0 0 0-3.994242 0.380404h-1.569166a9.5101 9.5101 0 0 1-8.987045-6.466868c-2.567727-7.60808-9.224797-18.639796-14.550452-18.639796a17.260831 17.260831 0 0 0-10.223358 6.989923 9.5101 9.5101 0 0 1-7.132575 3.233434h-1.188762l-24.250755-3.043232-7.845832 10.46111a9.5101 9.5101 0 0 1-7.65563 3.80404 9.224797 9.224797 0 0 1-4.136894-0.95101l-145.029022-70.660042a9.5101 9.5101 0 0 1-5.087904-10.889064 27.62684 27.62684 0 0 0 0.475505-11.649872 12.030276 12.030276 0 0 0-3.090782 0.665707 9.747852 9.747852 0 0 1-3.043232 0.523055 9.5101 9.5101 0 0 1-6.704621-2.805479 27.959694 27.959694 0 0 0-18.021639-6.752171 30.432319 30.432319 0 0 0-9.5101 1.616717 9.177246 9.177246 0 0 1-2.995681 0.475505 9.5101 9.5101 0 0 1-5.135454-1.474066 243.173253 243.173253 0 0 1-47.550499-42.795449c-30.907824-36.043278-45.505828-75.747945-42.224843-114.834455 1.474065-17.926538 3.090782-33.285349 4.755049-46.456838a9.5101 9.5101 0 0 1 5.515858-7.370327 9.5101 9.5101 0 0 1 9.129696 0.713257c75.129789 49.167216 285.540748 163.478616 615.398561 163.431066a1557.992106 1557.992106 0 0 0 235.707824-18.449594c25.819921-5.515858 547.163594-115.547713 679.972139-115.547713h18.687346c117.497283 0 545.261574-33.760854 723.671047-48.311307h0.808358a9.5101 9.5101 0 0 1 7.132575 3.280984 9.5101 9.5101 0 0 1 2.282424 7.370328c9.5101 12.268029 32.38189 44.935222 26.62828 66.095194a22.491386 22.491386 0 0 1-8.131136 12.220478c0.760808 3.80404 2.187323 7.465428 4.041793 8.083585a9.5101 9.5101 0 0 1 4.75505 3.566287c2.472626 3.566287 58.629765 85.115394 50.688832 147.406548 9.5101 10.318458 18.259392 23.442396 13.266589 33.285349a9.5101 9.5101 0 0 1-3.80404 3.994242c-7.085024 4.041792-174.985837 98.762387-288.964383 98.762387-6.229115 0-12.268029-0.285303-17.974089-0.855909a9.5101 9.5101 0 0 1-8.55909-9.5101s0-9.5101-5.087903-9.5101a12.743534 12.743534 0 0 0-2.139773 0.237753c-7.940933 1.616717-13.979847 2.567727-18.354493 3.090782v6.181565a9.5101 9.5101 0 0 1-9.082145 9.5101c-1.474065 0-145.837381 6.466868-273.130067 6.466868-168.851823 0-189.821593-11.317019-196.716415-15.025958a9.5101 9.5101 0 0 1-3.661389-3.471186 44.269515 44.269515 0 0 0-8.60664-10.46111 8.178686 8.178686 0 0 1-1.85447 0 9.5101 9.5101 0 0 1-4.089343-0.95101 9.5101 9.5101 0 0 1-5.183004-6.514419s-3.613838-14.930857-13.789645-14.930856a15.691665 15.691665 0 0 0-4.469747 0.665707c-0.713257 16.832877-9.082145 40.750778-38.325702 43.984211h-0.808358c-0.332853 0-33.047597 0.95101-67.188856 0.95101-71.087996 0-78.696076-3.85159-82.357464-5.658509-11.41212-5.70606-12.505781-19.0202-13.31414-29.433759-1.141212-14.26515-2.425075-14.26515-4.75505-14.26515-4.75505 0-7.893383 4.422196-13.837195 13.837195-7.132575 11.317019-16.880427 26.818482-37.659996 27.103785-11.126817 2.329974-150.925284 18.639796-220.349013 18.639796z"/><path d="M2303.887745 629.901463c-0.285303 1.188762-0.523055 2.377525-0.808358 3.566287 0 0 48.358858 59.533225 18.592245 70.660042 0 0 0 18.592245 11.174367 22.348735 0 0 59.533225 85.590899 48.358858 145.029022 0 0 18.592245 18.592245 14.883306 26.057674 0 0-171.514651 97.478523-284.256884 97.478523a165.380636 165.380636 0 0 1-17.023079-0.808358s0-19.0202-14.598003-19.0202a20.446715 20.446715 0 0 0-3.994242 0.427954 155.918087 155.918087 0 0 1-26.010123 3.708939v14.883307s-144.173114 6.466868-272.702113 6.466867c-89.965544 0-172.323009-3.185883-192.199117-13.884745 0 0-9.224797-15.358811-16.500024-15.358812a4.75505 4.75505 0 0 0-2.139772 0.475505s-4.75505-22.396285-23.061992-22.396285a31.668632 31.668632 0 0 0-14.26515 3.80404s3.708939 37.18449-29.766612 40.89343c0 0-32.524541 0.95101-66.903553 0.951009s-70.660042-0.95101-78.12547-4.755049c-14.883306-7.417878 0-44.649919-22.301184-44.649919s-22.348735 40.94098-52.067797 40.94098c0 0-148.833062 17.641235-220.06371 17.641235a127.720641 127.720641 0 0 1-32.857395-2.757929c-30.194567-10.080706-24.060553-38.040399-49.832923-38.040399a51.259438 51.259438 0 0 0-9.5101 1.046111s-11.126817 26.057674-37.18449 29.766612h-200.853309a54.397771 54.397771 0 0 0-44.079313-23.77525c-12.458231 0-27.531739 4.279545-45.220524 16.452473h-37.184491s-13.028837 0.713257-32.809844 0.713258c-44.459717 0-123.108242-3.566287-164.286975-26.770931a15.549013 15.549013 0 0 0-16.785326-15.358812 34.664314 34.664314 0 0 0-5.563408 0.475505s-8.368888-25.106664-23.537497-25.106663c-5.040353 0-10.841514 2.805479-17.355933 10.223357l-29.766612-3.85159-11.126817 14.883306L156.935156 871.505549s5.896262-23.489947-8.463988-23.489946a19.685907 19.685907 0 0 0-6.419318 1.188762 37.232041 37.232041 0 0 0-24.726259-9.5101 39.752217 39.752217 0 0 0-12.458231 2.092222s-92.961226-59.485674-85.590899-148.737961c1.474065-17.546134 3.090782-32.762294 4.75505-45.981333 78.553425 51.40209 289.677641 165.000232 620.581565 165.000232a1558.039656 1558.039656 0 0 0 237.372092-18.639796s544.500766-115.357511 678.402972-115.357511h18.687346c116.974228 0 536.512282-33.285349 724.479406-48.358857m0-19.0202h-1.569167c-178.361922 14.26515-605.84091 48.263757-722.767587 48.263757H1560.530792c-133.426701 0-652.868354 109.366148-681.779058 115.690364a1547.673648 1547.673648 0 0 1-233.996006 18.306942c-327.290086 0-535.751474-113.217739-610.168006-161.671697a19.0202 19.0202 0 0 0-29.291107 13.31414c-1.806919 13.456791-3.471186 28.815603-4.75505 46.932343-8.273787 99.570745 90.060645 163.716369 94.245089 166.426747a19.0202 19.0202 0 0 0 10.270908 2.995681 19.0202 19.0202 0 0 0 6.038913-0.95101 19.448154 19.448154 0 0 1 6.419318-1.141212 18.687346 18.687346 0 0 1 11.269468 3.994242 19.543255 19.543255 0 0 0 9.5101 5.183005 19.0202 19.0202 0 0 0 10.318458 20.779568l145.029023 70.660042a19.0202 19.0202 0 0 0 23.775249-5.70606l4.75505-6.038914 19.0202 2.329975a20.827119 20.827119 0 0 0 2.377525 0 19.0202 19.0202 0 0 0 14.26515-6.514419 22.206083 22.206083 0 0 1 2.615277-2.615277 41.416485 41.416485 0 0 1 5.70606 10.984165 19.0202 19.0202 0 0 0 18.021639 12.981287 17.451033 17.451033 0 0 0 3.138333 0h0.570606a19.0202 19.0202 0 0 0 9.5101 12.791084c42.795449 24.108103 118.067889 29.196007 173.606872 29.196006 18.06919 0 30.574971-0.570606 33.28535-0.713257h36.708985a19.0202 19.0202 0 0 0 10.793964-3.376086c12.648433-8.654191 24.203204-13.076387 34.426561-13.076387a35.187369 35.187369 0 0 1 27.912143 14.930857 18.259392 18.259392 0 0 0 16.16717 8.939494h200.805758a17.308382 17.308382 0 0 0 2.710378 0 68.330067 68.330067 0 0 0 46.076434-30.43232c1.331414 0.427954 2.377525 1.90202 5.848711 7.132575a65.572138 65.572138 0 0 0 36.043279 29.956815c5.278105 1.759368 14.26515 3.756489 38.896308 3.756489 69.233527 0 207.034873-15.976968 221.300023-17.688786 25.582169-0.570606 37.755096-19.876109 45.077873-31.525981 0.332853-0.570606 0.760808-1.188762 1.188763-1.854469 0.95101 11.45967 3.090782 27.484189 18.354493 35.139819 5.325656 2.615277 13.31414 6.65707 86.637009 6.65707 34.28391 0 67.141305-0.95101 67.474159-0.95101h1.569166a50.260878 50.260878 0 0 0 45.030323-40.417925 17.355932 17.355932 0 0 1 1.236313 3.328535 19.0202 19.0202 0 0 0 10.366009 13.028837 19.685907 19.685907 0 0 0 6.276665 1.759369 44.317065 44.317065 0 0 1 4.231995 5.80116 19.495705 19.495705 0 0 0 7.275226 6.894823c13.932296 7.512979 49.452519 16.16717 201.233713 16.16717 127.482888 0 272.083956-6.419317 273.510471-6.466868a19.0202 19.0202 0 0 0 18.06919-16.975529c2.092222-0.332853 4.327095-0.713257 6.752171-1.188762a19.0202 19.0202 0 0 0 17.070629 18.06919 186.302856 186.302856 0 0 0 19.0202 0.903459c116.451173 0 286.491758-95.909357 293.671883-99.856048a19.400604 19.400604 0 0 0 7.608079-8.036034c5.70606-11.364569 1.664267-25.154214-11.887624-40.94098 5.325656-65.144184-50.260878-145.932482-52.733504-149.49877a20.92222 20.92222 0 0 0-4.75505-4.75505 32.334339 32.334339 0 0 0 5.420757-11.126816c6.419317-23.77525-13.409241-54.825726-26.342977-71.896355a18.734897 18.734897 0 0 0-4.755049-10.366009 19.0202 19.0202 0 0 0-14.26515-6.514418z m0 38.040399z"/><path d="M1034.57472 933.083446a9.5101 9.5101 0 0 1-4.327095-17.831438L2231.563436 253.206408a9.795403 9.795403 0 0 1 4.75505-1.188762 9.5101 9.5101 0 0 1 8.654191 5.658509c10.841514 24.345856 45.505828 105.657209 37.517344 129.622661a8.844393 8.844393 0 0 1-2.282424 3.708939c-1.426515 1.426515-141.415185 140.321523-293.719434 277.409612-206.036313 185.446947-335.944277 279.549385-386.205154 279.549385z" fill="#B89DA4"/><path d="M2236.175834 261.670397s44.602368 100.426654 37.184491 122.775389c0 0-557.910007 554.153518-673.219968 554.153517l-565.327885-15.025957L2236.175834 261.670397m0-19.0202a19.0202 19.0202 0 0 0-9.224796 2.377525L1025.635226 906.930671a19.0202 19.0202 0 0 0 8.701742 35.662874l565.327884 14.883307h0.475505c19.781008 0 58.392013-9.5101 165.333086-90.345949 61.054841-46.409287 137.516044-110.935315 227.243836-191.771163 152.4469-137.278291 292.625772-276.315951 294.052287-277.742466a19.305503 19.305503 0 0 0 4.75505-7.465428c3.328535-10.033155 4.041792-27.62684-15.976968-82.309914-10.318458-28.149896-21.397725-53.113908-21.87323-54.160019a19.0202 19.0202 0 0 0-17.498584-11.031716z"/><path d="M1432.144444 594.523891c-0.95101 0-23.77525-1.806919-33.28535-20.684467-8.368888-16.500023-3.376085-39.466914 14.835756-68.282517 12.41068-19.638356 24.583608-46.504388 37.422243-74.892036 30.47987-67.331507 61.815649-136.945438 108.652891-136.945438a48.834363 48.834363 0 0 1 17.878987 3.518737 6.799721 6.799721 0 0 1 1.331414 0.618157c13.694544 7.893383 133.902206 78.600975 140.03622 125.248015a27.198886 27.198886 0 0 1-7.893383 23.775249c-38.040399 38.040399-264.618528 142.651498-274.271279 146.978593a9.5101 9.5101 0 0 1-3.946691 0.855909z" fill="#FFFFFF"/><path d="M1559.674883 303.324634a39.276712 39.276712 0 0 1 14.265149 2.85303s167.377757 96.717715 130.145717 133.902206S1432.810151 585.013792 1432.810151 585.013792s-55.824286-3.708939-11.174368-74.368981c41.321384-65.429487 79.456884-207.367727 137.896448-207.415278m0-19.020199c-52.781054 0-85.590899 72.466961-117.307081 142.651497-12.743534 28.102345-24.77381 54.683074-36.804087 73.750824-20.113861 31.858834-25.249315 58.011609-15.26371 77.697516 11.840074 23.252194 38.040399 25.629719 41.226283 25.819921h1.283863a19.0202 19.0202 0 0 0 7.940934-1.711818c24.298305-11.221918 238.513304-110.412259 276.981657-148.880613a36.946738 36.946738 0 0 0 10.603762-31.621082c-1.94957-15.073508-12.172928-40.655677-77.459764-88.253726-33.428001-24.440957-65.71479-43.175853-67.283956-43.936661a19.0202 19.0202 0 0 0-2.615277-1.283864 59.343023 59.343023 0 0 0-21.350174-4.136893z"/><path d="M1490.393805 528.571349a26.961133 26.961133 0 0 1-21.397724-13.456791c-5.230555-10.223357-2.472626-23.77525 8.083584-40.655677a357.484653 357.484653 0 0 0 19.590806-39.229162c16.785326-37.041839 34.093708-75.319991 61.815649-75.319991a30.812723 30.812723 0 0 1 11.126817 2.139773l1.283863 0.618156c17.11818 9.890504 73.180218 44.126863 76.556304 69.804133a19.0202 19.0202 0 0 1-5.468307 16.262271C1621.490531 469.133225 1507.892389 521.771628 1495.006204 527.953192a9.5101 9.5101 0 0 1-3.946692 0.855909z" fill="#F1F2ED"/><path d="M1558.43857 369.419828a21.397725 21.397725 0 0 1 7.65563 1.474066s88.871883 51.354539 69.138426 71.325748-144.173114 77.031809-144.173114 77.031809-29.671511-1.997121-5.943812-39.514465c21.92078-34.759415 42.177293-110.126956 73.32287-110.126956m0-19.020199c-33.760854 0-52.305549 41.131182-70.42229 80.835848a359.814627 359.814627 0 0 1-19.020199 38.040399c-12.505781 19.733457-15.358811 36.566334-8.51154 50.023126a35.900627 35.900627 0 0 0 29.243557 18.592245h1.283864a18.592245 18.592245 0 0 0 7.940933-1.759369c21.302624-9.795403 128.386348-59.770977 149.688972-80.835848a28.5303 28.5303 0 0 0 8.178685-24.250755C1654.775881 415.686464 1641.033787 399.566845 1611.980432 378.311772c-18.211841-13.266589-35.757975-23.442396-36.518784-23.77525a16.500023 16.500023 0 0 0-2.615277-1.236313 39.942419 39.942419 0 0 0-14.550453-2.805479z"/><path d="M1262.912217 568.989273a17.783887 17.783887 0 0 1-15.358811-26.628279L1383.738036 306.177664a17.831437 17.831437 0 0 1 15.406361-8.891943 17.783887 17.783887 0 0 1 15.358812 26.628279l-136.327282 236.18333a17.926538 17.926538 0 0 1-15.26371 8.891943z" fill="#DDDBCC"/><path d="M1399.334599 302.040771a12.886185 12.886185 0 0 1 6.514419 1.759368 13.028837 13.028837 0 0 1 4.75505 17.736337L1274.371887 557.719805a12.981286 12.981286 0 0 1-11.317018 6.514418 12.838635 12.838635 0 0 1-6.466868-1.759368 13.028837 13.028837 0 0 1-4.75505-17.736336l136.374831-236.18333a12.981286 12.981286 0 0 1 11.269469-6.514418m0-9.5101a22.681588 22.681588 0 0 0-19.543255 11.269468l-136.469933 236.18333a22.491386 22.491386 0 1 0 38.991409 22.491386l136.374832-236.18333a22.586487 22.586487 0 0 0-8.226236-30.765173 22.82424 22.82424 0 0 0-11.269469-2.995681z"/><path d="M1203.711846 523.578547a17.736336 17.736336 0 0 1-17.403483-14.550453 17.355932 17.355932 0 0 1 2.805479-13.31414l120.778268-175.413791a17.783887 17.783887 0 0 1 29.291108 20.161411l-120.778268 175.413792a17.878988 17.878988 0 0 1-14.693104 7.703181z" fill="#DDDBCC"/><path d="M1324.537664 317.352032A12.981286 12.981286 0 0 1 1335.236526 337.751196l-120.778268 175.413791a13.076387 13.076387 0 0 1-10.746412 5.65851 13.31414 13.31414 0 0 1-7.370328-2.282424 13.076387 13.076387 0 0 1-3.328535-18.116741l120.778268-175.413791a13.076387 13.076387 0 0 1 10.746413-5.658509m0-9.5101a22.538937 22.538937 0 0 0-18.544695 9.747852l-120.778268 175.413792a22.538937 22.538937 0 0 0 5.753611 31.335779 22.253634 22.253634 0 0 0 12.743534 3.994241 22.538937 22.538937 0 0 0 18.592245-9.510099l120.778268-175.413792a22.538937 22.538937 0 0 0-18.497144-35.330021z"/><path d="M1155.495639 504.986301a17.546134 17.546134 0 0 1-10.033155-3.138333 17.783887 17.783887 0 0 1-4.75505-24.726259l94.530393-137.278291a17.878988 17.878988 0 0 1 14.693104-7.703181 17.831437 17.831437 0 0 1 14.598003 27.864592l-94.530392 137.278292a17.878988 17.878988 0 0 1-14.502903 7.70318z" fill="#DDDBCC"/><path d="M1249.978481 336.895287a12.981286 12.981286 0 0 1 10.651312 20.399164L1166.099401 494.667843a13.028837 13.028837 0 1 1-21.445275-14.740655L1239.184518 342.506246a13.171488 13.171488 0 0 1 10.793963-5.610959m0-9.5101a22.538937 22.538937 0 0 0-18.402043 9.747852l-94.720594 137.278291a22.538937 22.538937 0 0 0 5.75361 31.335779 22.253634 22.253634 0 0 0 12.743534 3.994242 22.538937 22.538937 0 0 0 18.592245-9.5101l94.530392-137.325841a22.491386 22.491386 0 0 0-18.497144-35.282471z"/><path d="M1106.99413 478.928628a17.783887 17.783887 0 0 1-14.598003-27.817042l57.726306-83.83153a17.783887 17.783887 0 0 1 29.148456 20.161411l-57.583654 83.78398a17.736336 17.736336 0 0 1-14.693105 7.703181z" fill="#DDDBCC"/><path d="M1165.005739 364.331925a12.981286 12.981286 0 0 1 10.698863 20.399164l-57.916508 83.83153a13.028837 13.028837 0 1 1-21.445276-14.788205l57.678756-83.78398a13.076387 13.076387 0 0 1 10.984165-5.658509m0-9.5101a22.681588 22.681588 0 0 0-18.592245 9.5101l-57.916508 84.069282a22.634038 22.634038 0 0 0 5.75361 31.335779 22.586487 22.586487 0 0 0 31.335779-5.801161L1183.312681 390.056745a22.538937 22.538937 0 0 0 3.566288-16.880427 22.586487 22.586487 0 0 0-21.87323-18.354493z"/><path d="M871.856912 751.440539a17.736336 17.736336 0 0 1-13.266589-29.576411l161.101091-180.691897a17.783887 17.783887 0 0 1 25.106663-1.426515 17.783887 17.783887 0 0 1 1.426515 25.059113l-161.101091 180.691897a17.736336 17.736336 0 0 1-13.266589 5.943813z" fill="#6E7166"/><path d="M1032.958003 539.935918a12.981286 12.981286 0 0 1 9.5101 21.683028l-161.101091 180.691897a13.028837 13.028837 0 0 1-19.448155-17.355932l161.148642-180.691897a13.028837 13.028837 0 0 1 9.5101-4.327096m0-9.5101a22.681588 22.681588 0 0 0-16.832877 7.512979l-161.101091 180.691897a22.538937 22.538937 0 0 0 33.618203 30.004365l161.148642-180.691897a22.538937 22.538937 0 0 0-16.832877-37.517344z"/><path d="M976.182707 744.498166a17.546134 17.546134 0 0 1-10.556211-3.471187 17.831437 17.831437 0 0 1-3.708939-24.868911L1069.619438 570.748642a17.831437 17.831437 0 0 1 14.26515-7.180126 17.546134 17.546134 0 0 1 10.55621 3.471187 17.831437 17.831437 0 0 1 3.708939 24.868911L990.495407 737.175389a17.831437 17.831437 0 0 1-14.3127 7.322777z" fill="#6E7166"/><path d="M1084.169891 568.466218a12.505781 12.505781 0 0 1 7.703181 2.567727 13.028837 13.028837 0 0 1 2.710378 18.211841l-107.701881 145.266775a13.123938 13.123938 0 0 1-18.211841 2.710378 13.076387 13.076387 0 0 1-2.662828-18.211841l107.701881-145.314325a12.933736 12.933736 0 0 1 10.46111-5.230555m0-9.5101a22.729139 22.729139 0 0 0-18.116741 9.082145L958.113517 713.400139a22.538937 22.538937 0 0 0 36.18593 26.818482l107.701881-145.266775a22.586487 22.586487 0 0 0-4.75505-31.525981 22.348735 22.348735 0 0 0-13.409241-4.422197z"/><path d="M1077.988326 717.489482a17.736336 17.736336 0 0 1-13.979847-28.530299l67.379057-86.113954a17.783887 17.783887 0 1 1 28.007244 21.92078l-67.426607 86.113954a17.593685 17.593685 0 0 1-13.979847 6.609519z" fill="#6E7166"/><path d="M1145.414934 600.610355a12.933736 12.933736 0 0 1 7.988483 2.757929 13.076387 13.076387 0 0 1 2.234874 18.306942l-67.379057 86.066404a13.076387 13.076387 0 0 1-18.306943 2.234873 13.123938 13.123938 0 0 1-2.234873-18.259391l67.426608-86.113954a12.981286 12.981286 0 0 1 10.270908-4.75505m0-9.5101a22.443836 22.443836 0 0 0-17.783887 8.654191L1060.394641 685.82085a22.538937 22.538937 0 0 0 17.736336 36.423682 22.253634 22.253634 0 0 0 17.736336-8.654191l67.379058-86.066403a22.538937 22.538937 0 0 0-17.688786-36.423683z"/><path d="M1163.531674 711.688321a17.783887 17.783887 0 0 1-15.406362-26.628279l25.867472-44.79257a17.783887 17.783887 0 0 1 30.812723 17.783886l-25.867471 44.79257a17.878988 17.878988 0 0 1-15.406362 8.844393z" fill="#6E7166"/><path d="M1189.399145 636.130578a13.028837 13.028837 0 0 1 11.269469 19.543255l-25.867472 44.792571a13.076387 13.076387 0 0 1-11.269468 6.466867 12.838635 12.838635 0 0 1-6.514419-1.711818 12.981286 12.981286 0 0 1-4.75505-17.783886l25.867472-44.79257a12.933736 12.933736 0 0 1 11.269468-6.514419m0-9.5101a22.538937 22.538937 0 0 0-19.495704 11.269469l-25.867472 44.79257a22.538937 22.538937 0 0 0 38.991409 22.538936l25.867472-44.79257a22.586487 22.586487 0 0 0-8.226236-30.812723 22.82424 22.82424 0 0 0-11.269469-2.995682z"/><path d="M748.463366 486.77446c-44.982772 0-97.288321-30.289668-133.141397-55.729185a9.5101 9.5101 0 0 1 3.328535-17.023079c26.818482-6.229115 45.268075-10.50866 57.060599-13.028836 69.56638-14.645554 657.956257-297.666125 715.539911-326.481728 3.899141-1.94957 7.988484-4.089343 12.220479-6.324216a9.985605 9.985605 0 0 1 4.469747-1.093662 9.5101 9.5101 0 0 1 6.038913 2.187323c80.835849 66.570699 75.177339 80.407894 72.181658 87.920873-8.226236 20.541816-65.096633 55.301231-97.763827 55.301231a36.994288 36.994288 0 0 1-10.366008-1.331414 30.432319 30.432319 0 0 0-7.60808-1.331414c-2.615277 0-3.233434 0-4.75505 10.841514a95.100998 95.100998 0 0 1-1.759369 9.5101c-5.515858 22.063432-101.805619 66.570699-120.778268 66.570698a15.739215 15.739215 0 0 1-11.554771-4.992802c-11.174367-11.982726-11.982726-49.167216-11.221918-73.275319l-1.711818 0.903459c-2.472626 18.687346-11.079266 83.498677-14.265149 99.856049-1.141212 5.70606-2.329974 11.602322-66.903553 39.704666-36.804086 15.976968-85.590899 35.28247-137.18319 54.30267-96.812816 35.520223-213.739494 73.513072-251.827444 73.513072z" fill="#FFFFFF"/><path d="M1408.036341 76.603854c27.864593 22.919341 74.654284 63.955421 69.376178 77.079359-6.752171 16.927978-59.866078 49.309868-88.919434 49.309868a27.912143 27.912143 0 0 1-7.750731-0.95101 37.327142 37.327142 0 0 0-10.223357-1.711818c-14.835756 0-12.695983 15.21616-15.834316 27.721941-3.708939 14.883306-92.961226 59.533225-111.553472 59.533225s-12.695983-85.020293-12.695983-85.020292l-20.779568 10.651311s-11.174367 85.590899-14.883306 104.135594-375.648944 159.912329-446.308986 159.912328c-42.795449 0-94.197539-30.289668-127.768191-53.969816 24.964012-5.801161 44.840121-10.413559 57.060599-12.981287 70.660042-14.883306 658.289111-297.523473 718.012538-327.290085 3.994242-1.997121 8.131135-4.136893 12.458231-6.419318m0-19.020199a19.0202 19.0202 0 0 0-8.891944 2.187322c-4.184444 2.234873-8.178686 4.327095-12.030276 6.229116-78.363223 39.181611-648.255955 312.026376-713.257488 325.720919-12.077827 2.520176-30.574971 6.799721-57.441003 13.028837a19.0202 19.0202 0 0 0-6.70462 34.046158c37.089389 26.247876 91.249408 57.488554 138.752356 57.488553 49.54762 0 207.557929-56.775296 254.823126-74.178779 51.830044-19.0202 100.711957-38.420803 137.896447-54.492872 65.904992-28.5303 70.327188-35.995728 72.41941-46.551938 1.188762-5.943812 3.043232-18.06919 5.087904-32.096587a34.093708 34.093708 0 0 0 5.896262 9.272347 25.344416 25.344416 0 0 0 18.734896 8.368888c17.974089 0 58.201811-20.161412 70.089436-26.295426 55.158579-28.5303 58.392013-41.464035 59.913629-47.550499a103.755189 103.755189 0 0 0 1.949571-10.603762c0-0.523055 0-1.141212 0.285303-1.759368a48.739262 48.739262 0 0 0 12.981286 1.664267c34.521662 0 96.289761-35.472672 106.608219-61.245043 6.70462-16.832877-5.70606-34.28391-26.390527-55.30123-15.311261-15.549013-34.854516-32.286789-48.59661-43.556258a19.0202 19.0202 0 0 0-12.077827-4.327095z"/><path d="M1992.051572 591.908614L1973.364225 585.013792l-2.282424 1.759368 10.556211 13.551892-11.554771 9.034595-31.47843-40.370374 16.404922-12.791084c10.270908-7.988484 18.687346-8.273787 26.152774 1.331414 5.087903 6.466868 5.848711 11.935175 2.377525 17.546134l22.348735 6.324217z m-27.57929-13.504342l2.757929-2.187323c4.75505-3.661388 5.278105-6.181565 2.329975-9.985605s-5.183004-3.423636-9.890504 0.285303l-2.80548 2.139773zM1997.852733 565.422986l-20.827119-26.67583 11.554771-9.034595 20.208962 25.867472c1.997121 2.615277 4.992802 4.422196 10.603762 0s4.279545-8.226236 2.615277-10.366009L2001.894525 519.394103l11.507221-8.987045 20.827118 26.67583c7.988484 10.318458 4.231994 19.590806-7.085024 28.5303s-20.494265 11.174367-29.291107-0.190202zM2020.914725 504.510796l17.451033-13.599442 28.102345 19.020199 0.332853-0.285303-19.733457-25.296865 11.269469-8.796843 31.47843 40.322824-16.119619 12.600882-30.622522-19.495705-0.332853 0.237753 21.01732 27.008683-11.364569 8.844393zM2066.040148 469.323427l17.403483-13.599443 28.102345 19.0202 0.380404-0.285303-19.685907-25.534618 11.269469-8.796843L2135.035923 480.402693l-16.11962 12.600883-30.622521-19.495705h-0.332854l21.017321 27.008683-11.41212 8.844393zM2111.260673 434.136058l11.602322-9.034595 31.193127 40.370374-11.554771 8.987044zM2130.280873 419.1101l17.451033-13.599443 28.102345 19.0202 0.332853-0.285303-19.733457-25.296866 11.36457-8.891943 31.47843 40.370374-16.119619 12.553331-30.622522-19.638356-0.332853 0.285303 20.874669 26.961133-11.364569 8.891944zM2190.194502 404.940051c-12.172928-15.596564-8.226236-26.961133 4.469747-36.899187a54.968377 54.968377 0 0 1 12.125377-7.275227l7.845832 10.270908a43.461156 43.461156 0 0 0-11.364569 6.229116c-6.70462 5.278105-6.609519 9.842953-0.285303 17.926538s9.842953 10.270908 17.070629 4.75505a28.910704 28.910704 0 0 0 2.520177-2.044672l-4.75505-5.848711-5.896262 4.75505-7.560529-9.5101 16.595124-12.933736 18.16429 23.347295a68.472719 68.472719 0 0 1-12.315579 12.600882c-12.838635 9.414999-23.442396 11.507221-36.613884-5.373206z" fill="#FFFFFF"/><path d="M1912.356935 529.284606l13.789645-10.746412c11.221918-8.749292 16.785326-8.796842 22.301184-1.759369s3.85159 13.31414-6.799722 21.635477l-3.613837 2.80548 5.80116 7.465428-10.175806 7.798282z m22.966891 4.041793c4.279545-3.328535 5.135454-5.373206 2.85303-8.226236s-4.75505-2.615277-8.796842 0.618156l-2.139773 1.664267 5.943813 7.655631zM1955.913192 517.301881c-8.749292-11.221918-4.75505-19.0202 5.801161-27.151335s19.0202-10.223357 27.674391 0.99856 4.75505 19.0202-5.753611 27.103785-18.925099 10.270908-27.721941-0.95101z m22.776689-17.783887c-4.75505-5.943812-7.180125-6.799721-12.030276-2.995681s-4.75505 6.419317 0 12.363129 7.085024 6.70462 11.935175 2.948131 4.659949-6.466868 0.095101-12.41068zM1981.828214 475.077037l10.556211-8.321337 17.926538 14.835756h0.285303l-8.131135-19.0202 11.554771-8.987044 15.976968 12.553332h0.427954l-9.842953-21.159973 10.651312-8.273786 13.36169 33.285349-12.695983 9.938054-15.929417-11.887624h-0.285303l7.512979 18.402043-12.695984 9.938054zM2074.74189 435.752775l5.278105 6.609519-23.537497 18.354493-21.302624-27.246436 23.204644-18.06919 5.325656 6.752171-12.981286 10.128256 2.662828 3.471187 11.935175-9.5101L2070.367244 432.852194l-11.935176 9.5101 2.995682 3.85159zM2105.031558 422.91414l-14.26515-3.423636-1.997121 1.521616 7.132575 9.177246-10.175807 7.940934-21.302624-27.293987 14.26515-11.269468c9.082145-7.085024 15.834316-8.083585 20.92222-1.616717a9.5101 9.5101 0 0 1 0 13.028836l17.308381 2.567727z m-20.827119-7.465429l2.472626-1.94957c4.136893-3.233434 4.75505-5.135454 2.85303-7.703181s-3.85159-2.092222-7.988484 1.141212l-2.472626 1.949571zM822.356842 434.37381a14.26515 14.26515 0 0 1-3.708939-0.523055l-123.631298-33.28535a14.26515 14.26515 0 0 1 7.417878-27.531739l108.082285 29.100906L822.642145 318.207941a14.26515 14.26515 0 0 1 20.256513-10.841514l82.262363 39.134061L936.763343 261.242443a14.26515 14.26515 0 0 1 20.732018-10.746413l98.001579 51.021685V206.131414a14.26515 14.26515 0 0 1 23.775249-10.651312l50.070676 44.982772-17.688786-132.523241a26.057674 26.057674 0 0 1 41.701788-24.060552l117.021778 90.345948-15.739215-134.472812a26.057674 26.057674 0 0 1 45.172974-20.589366l113.26529 125.057813a14.26515 14.26515 0 0 1-21.159973 19.0202L1283.881987 44.174414 1302.521783 204.609798a14.26515 14.26515 0 0 1-22.87179 12.933736l-138.990109-107.369027 21.96833 164.85758a14.26515 14.26515 0 0 1-23.775249 12.505782L1083.884588 237.895147v87.112515a14.26515 14.26515 0 0 1-6.847272 12.172928 14.26515 14.26515 0 0 1-13.979847 0.475505l-100.902159-52.305549-11.507221 84.544787a14.26515 14.26515 0 0 1-20.304063 10.651312l-82.309914-39.229162-11.554772 80.835849a14.26515 14.26515 0 0 1-14.265149 12.268029z"/></svg>