<?xml version="1.0" ?><svg id="Layer_1" style="enable-background:new 0 0 62 62;" version="1.1" viewBox="0 0 62 62" xml:space="preserve" xmlns="http://www.w3.org/2000/svg" xmlns:xlink="http://www.w3.org/1999/xlink"><style type="text/css">
	.st0{fill:#5FD2FF;}
	.st1{fill:#FFFFFF;}
	.st2{fill:#0082ED;}
	.st3{fill:#2BA8FC;}
	.st4{fill:#CECECE;}
	.st5{fill:#F92B75;}
	.st6{fill:#3BB0FF;}
	.st7{fill:#CE004F;}
	.st8{fill:none;stroke:#ED0C68;stroke-width:5;stroke-linecap:round;stroke-linejoin:round;stroke-miterlimit:10;}
	.st9{fill:#ED0C68;}
	.st10{fill:#78DED4;}
	.st11{fill:#1E5363;}
	.st12{fill:#54C8E8;}
	.st13{fill:#F4F4F4;}
	.st14{fill:#0C82EB;}
	.st15{fill:#00B2E3;}
	.st16{fill:#68A2B9;}
	.st17{fill:#A2C5D3;}
	.st18{fill:#76777A;}
	.st19{fill:#A7A8A9;}
	.st20{fill:#D6D6D6;}
	.st21{fill:none;stroke:#F92B75;stroke-width:5;stroke-linecap:round;stroke-linejoin:round;stroke-miterlimit:10;}
	.st22{fill:#FD4A5C;}
	.st23{fill:#FF8E9F;}
	.st24{fill:none;stroke:#F458A3;stroke-width:5;stroke-linecap:round;stroke-linejoin:round;stroke-miterlimit:10;}
	.st25{fill:#FFB259;}
	.st26{fill:#F32735;}
	.st27{fill:#FF9E18;}
	.st28{fill:#FFC27A;}
	.st29{fill:#FFC56D;}
	.st30{fill:none;stroke:#FD4A5C;stroke-width:5;stroke-linecap:round;stroke-linejoin:round;stroke-miterlimit:10;}
	.st31{fill:#0069A7;}
	.st32{fill:#D8D8D8;}
	.st33{fill:#8CB7C9;}
	.st34{fill:#65BAAF;}
	.st35{fill:#00AF9A;}
	.st36{fill:#00C4B3;}
	.st37{fill:#19D3C5;}
	.st38{fill:none;stroke:#54C8E8;stroke-width:5;stroke-linecap:round;stroke-linejoin:round;stroke-miterlimit:10;}
	.st39{fill:#8331A7;}
	.st40{fill:#009383;}
	.st41{fill:#98989A;}
	.st42{fill:#636569;}
	.st43{fill:#898A8D;}
	.st44{fill:#FFB548;}
	.st45{fill:none;stroke:#FFB548;stroke-width:5;stroke-linecap:round;stroke-linejoin:round;stroke-miterlimit:10;}
	.st46{fill:#ED40A9;}
	.st47{fill:#CB007B;}
	.st48{fill:#E50695;}
	.st49{fill:#D7282F;}
	.st50{fill:#E5E5E5;}
	.st51{fill:#FFA4B4;}
	.st52{fill:#F6A7D7;}
	.st53{fill:#F478C4;}
	.st54{fill:#E0C7E6;}
	.st55{fill:#B980D0;}
	.st56{fill:#D9B7E2;}
	.st57{fill:#BADF93;}
	.st58{fill:#4C9C2E;}
	.st59{fill:#3DAE2B;}
	.st60{fill:#AADA91;}
	.st61{fill:#6ABF4B;}
	.st62{fill:#EFB8A9;}
	.st63{fill:#FECB8B;}
	.st64{fill:#BDE8EF;}
	.st65{fill:#CCA1DD;}
	.st66{fill:#B2B2B2;}
	.st67{fill:none;stroke:#FF8300;stroke-width:5;stroke-linecap:round;stroke-linejoin:round;stroke-miterlimit:10;}
	.st68{fill:none;stroke:#FF9E18;stroke-width:5;stroke-linecap:round;stroke-linejoin:round;stroke-miterlimit:10;}
	.st69{fill:#96DAEA;}
	.st70{fill:#FF8300;}
	.st71{fill:none;stroke:#6ABF4B;stroke-width:5;stroke-linecap:round;stroke-linejoin:round;stroke-miterlimit:10;}
	.st72{fill:none;}
	.st73{fill:#444444;}
	.st74{fill:#FDCF85;}
</style><g><path class="st72" d="M22.62,14.15h33.09c2.09,0,3.78,1.69,3.78,3.78v32.94c0,2.09-1.69,3.78-3.78,3.78H32.08L22.62,14.15z"/><path class="st13" d="M22.62,14.15h33.09c2.09,0,3.78,1.69,3.78,3.78v32.94c0,2.09-1.69,3.78-3.78,3.78H32.08L22.62,14.15z"/><path class="st18" d="M55.71,57.16H32.08c-1.16,0-2.17-0.8-2.43-1.93l-9.46-40.51c-0.17-0.74,0-1.52,0.48-2.12   c0.47-0.6,1.2-0.95,1.96-0.95h33.09c3.47,0,6.29,2.82,6.29,6.29v32.94C62,54.34,59.18,57.16,55.71,57.16z M34.07,52.16h21.65   c0.71,0,1.29-0.58,1.29-1.29V17.93c0-0.71-0.58-1.29-1.29-1.29H25.77L34.07,52.16z"/><path class="st42" d="M55.71,57.16H45.56c-1.38,0-2.5-1.12-2.5-2.5s1.12-2.5,2.5-2.5h10.16c0.71,0,1.29-0.58,1.29-1.29v-5.63   c0-1.38,1.12-2.5,2.5-2.5s2.5,1.12,2.5,2.5v5.63C62,54.34,59.18,57.16,55.71,57.16z"/><path class="st43" d="M52.52,24.93h-7.66v-4.35c0-0.84-0.68-1.51-1.51-1.51c-0.84,0-1.51,0.68-1.51,1.51v4.35h-7.66   c-0.84,0-1.51,0.68-1.51,1.51s0.68,1.51,1.51,1.51h3.89c0.55,3.16,1.67,5.97,3.37,8.42c-1.45,1.6-3.24,2.98-5.4,4.17   c-0.73,0.4-1,1.32-0.6,2.06c0.28,0.5,0.79,0.78,1.33,0.78c0.25,0,0.5-0.06,0.73-0.19c2.29-1.26,4.24-2.76,5.86-4.47   c1.62,1.71,3.56,3.2,5.86,4.47c0.23,0.13,0.48,0.19,0.73,0.19c0.53,0,1.05-0.28,1.33-0.78c0.4-0.73,0.14-1.65-0.6-2.06   c-2.15-1.19-3.95-2.57-5.4-4.17c1.7-2.45,2.82-5.26,3.37-8.42h3.89c0.84,0,1.51-0.68,1.51-1.51S53.35,24.93,52.52,24.93z    M43.34,33.8c-1.05-1.74-1.79-3.68-2.21-5.84h4.43C45.13,30.12,44.4,32.06,43.34,33.8z"/><path class="st12" d="M39.38,47.85H6.28c-2.09,0-3.78-1.69-3.78-3.78V11.12c0-2.09,1.69-3.78,3.78-3.78h23.63L39.38,47.85z"/><polygon class="st31" points="39.38,47.85 32.08,54.66 30.49,47.85  "/><path class="st31" d="M32.08,57.16c-0.24,0-0.49-0.04-0.73-0.11c-0.85-0.26-1.5-0.96-1.71-1.82l-1.59-6.81   c-0.17-0.74,0-1.52,0.48-2.12c0.47-0.6,1.2-0.95,1.96-0.95h8.89c1.03,0,1.95,0.63,2.33,1.58c0.38,0.96,0.13,2.04-0.62,2.74   l-7.3,6.81C33.32,56.93,32.71,57.16,32.08,57.16z"/><path class="st14" d="M39.38,50.35H6.29C2.82,50.35,0,47.53,0,44.07V11.12c0-3.47,2.82-6.29,6.29-6.29h23.63   c1.16,0,2.17,0.8,2.43,1.93l9.46,40.51c0.17,0.74,0,1.52-0.48,2.12C40.86,50,40.14,50.35,39.38,50.35z M6.29,9.84   C5.58,9.84,5,10.41,5,11.12v32.94c0,0.71,0.58,1.29,1.29,1.29h29.94L27.93,9.84H6.29z"/><path class="st15" d="M2.5,27.76c-1.38,0-2.5-1.12-2.5-2.5V11.12c0-3.47,2.82-6.29,6.29-6.29h10.21c1.38,0,2.5,1.12,2.5,2.5   s-1.12,2.5-2.5,2.5H6.29C5.58,9.84,5,10.41,5,11.12v14.14C5,26.64,3.88,27.76,2.5,27.76z"/><g><path class="st13" d="M17.43,29.23C11.77,29.99,7,25,8.15,19.28c0.68-3.41,3.55-6.07,7-6.53c1.79-0.24,3.55,0.08,5.06,0.89    c1.12,0.6,1.33,2.11,0.44,3.01l-0.08,0.08c-0.62,0.62-1.53,0.7-2.29,0.32c-0.84-0.42-1.81-0.57-2.8-0.39    c-1.71,0.31-3.12,1.68-3.47,3.38c-0.59,2.83,1.57,5.34,4.3,5.34c1.72,0,3.21-0.99,3.94-2.44h-1.98c-1.08,0-1.96-0.88-1.96-1.96v0    c0-1.08,0.88-1.96,1.96-1.96h4.64c0.95,0,1.72,0.77,1.72,1.72v0C24.62,24.95,21.6,28.68,17.43,29.23z"/></g></g></svg>