<?xml version="1.0" ?><svg id="Layer_1" style="enable-background:new 0 0 62 62;" version="1.1" viewBox="0 0 62 62" xml:space="preserve" xmlns="http://www.w3.org/2000/svg" xmlns:xlink="http://www.w3.org/1999/xlink"><style type="text/css">
	.st0{fill:#5FD2FF;}
	.st1{fill:#FFFFFF;}
	.st2{fill:#0082ED;}
	.st3{fill:#2BA8FC;}
	.st4{fill:#CECECE;}
	.st5{fill:#F92B75;}
	.st6{fill:#3BB0FF;}
	.st7{fill:#CE004F;}
	.st8{fill:none;stroke:#ED0C68;stroke-width:5;stroke-linecap:round;stroke-linejoin:round;stroke-miterlimit:10;}
	.st9{fill:#ED0C68;}
	.st10{fill:#78DED4;}
	.st11{fill:#1E5363;}
	.st12{fill:#54C8E8;}
	.st13{fill:#F4F4F4;}
	.st14{fill:#0C82EB;}
	.st15{fill:#00B2E3;}
	.st16{fill:#68A2B9;}
	.st17{fill:#A2C5D3;}
	.st18{fill:#76777A;}
	.st19{fill:#A7A8A9;}
	.st20{fill:#D6D6D6;}
	.st21{fill:none;stroke:#F92B75;stroke-width:5;stroke-linecap:round;stroke-linejoin:round;stroke-miterlimit:10;}
	.st22{fill:#FD4A5C;}
	.st23{fill:#FF8E9F;}
	.st24{fill:none;stroke:#F458A3;stroke-width:5;stroke-linecap:round;stroke-linejoin:round;stroke-miterlimit:10;}
	.st25{fill:#FFB259;}
	.st26{fill:#F32735;}
	.st27{fill:#FF9E18;}
	.st28{fill:#FFC27A;}
	.st29{fill:#FFC56D;}
	.st30{fill:none;stroke:#FD4A5C;stroke-width:5;stroke-linecap:round;stroke-linejoin:round;stroke-miterlimit:10;}
	.st31{fill:#0069A7;}
	.st32{fill:#D8D8D8;}
	.st33{fill:#8CB7C9;}
	.st34{fill:#65BAAF;}
	.st35{fill:#00AF9A;}
	.st36{fill:#00C4B3;}
	.st37{fill:#19D3C5;}
	.st38{fill:none;stroke:#54C8E8;stroke-width:5;stroke-linecap:round;stroke-linejoin:round;stroke-miterlimit:10;}
	.st39{fill:#8331A7;}
	.st40{fill:#009383;}
	.st41{fill:#98989A;}
	.st42{fill:#636569;}
	.st43{fill:#898A8D;}
	.st44{fill:#FFB548;}
	.st45{fill:none;stroke:#FFB548;stroke-width:5;stroke-linecap:round;stroke-linejoin:round;stroke-miterlimit:10;}
	.st46{fill:#ED40A9;}
	.st47{fill:#CB007B;}
	.st48{fill:#E50695;}
	.st49{fill:#D7282F;}
	.st50{fill:#E5E5E5;}
	.st51{fill:#FFA4B4;}
	.st52{fill:#F6A7D7;}
	.st53{fill:#F478C4;}
	.st54{fill:#E0C7E6;}
	.st55{fill:#B980D0;}
	.st56{fill:#D9B7E2;}
	.st57{fill:#BADF93;}
	.st58{fill:#4C9C2E;}
	.st59{fill:#3DAE2B;}
	.st60{fill:#AADA91;}
	.st61{fill:#6ABF4B;}
	.st62{fill:#EFB8A9;}
	.st63{fill:#FECB8B;}
	.st64{fill:#BDE8EF;}
	.st65{fill:#CCA1DD;}
	.st66{fill:#B2B2B2;}
	.st67{fill:none;stroke:#FF8300;stroke-width:5;stroke-linecap:round;stroke-linejoin:round;stroke-miterlimit:10;}
	.st68{fill:none;stroke:#FF9E18;stroke-width:5;stroke-linecap:round;stroke-linejoin:round;stroke-miterlimit:10;}
	.st69{fill:#96DAEA;}
	.st70{fill:#FF8300;}
	.st71{fill:none;stroke:#6ABF4B;stroke-width:5;stroke-linecap:round;stroke-linejoin:round;stroke-miterlimit:10;}
	.st72{fill:none;}
	.st73{fill:#444444;}
	.st74{fill:#FDCF85;}
</style><g><path class="st63" d="M59.5,31c0,15.74-12.76,28.5-28.5,28.5c-0.56,0-1.12-0.02-1.68-0.05l12.22-21.69l0.01-0.01   c1.25-1.95,1.97-4.27,1.97-6.75c0-6.92-5.61-12.53-12.53-12.53l25.44-0.34C58.4,22,59.5,26.37,59.5,31z"/><path class="st22" d="M56.44,18.14L31,18.47c-6.92,0-12.53,5.61-12.53,12.53c0,2.01,0.47,3.9,1.31,5.58L7.22,15.29   C12.32,7.58,21.07,2.5,31,2.5C42.11,2.5,51.74,8.86,56.44,18.14z"/><path class="st51" d="M56.44,18.14L31,18.47c-6.92,0-12.53,5.61-12.53,12.53c0,2.01,0.47,3.9,1.31,5.58L7.22,15.29   C12.32,7.58,21.07,2.5,31,2.5C42.11,2.5,51.74,8.86,56.44,18.14z"/><path class="st26" d="M19.79,39.08c-0.86,0-1.69-0.44-2.15-1.23L5.07,16.57c-0.49-0.82-0.46-1.85,0.07-2.65C10.9,5.2,20.57,0,31,0   c11.75,0,22.35,6.52,27.67,17.01c0.39,0.77,0.36,1.69-0.09,2.42s-1.24,1.19-2.11,1.21l-25.44,0.34c-5.56,0-10.06,4.5-10.06,10.03   c0,1.57,0.35,3.08,1.05,4.47c0.6,1.21,0.14,2.67-1.04,3.31C20.6,38.99,20.19,39.08,19.79,39.08z M10.19,15.41l6.5,11.01   c1.94-6.05,7.62-10.45,14.31-10.45l21.03-0.28C47.18,9.01,39.44,5,31,5C22.76,5,15.1,8.87,10.19,15.41z"/><path class="st22" d="M7.22,17.79c-0.47,0-0.95-0.13-1.38-0.42c-1.15-0.76-1.47-2.31-0.71-3.46C10.9,5.2,20.57,0,31,0   c1.38,0,2.5,1.12,2.5,2.5S32.38,5,31,5C22.25,5,14.14,9.36,9.3,16.67C8.82,17.4,8.03,17.79,7.22,17.79z"/><path class="st60" d="M41.55,37.76L29.32,59.45C14.37,58.58,2.5,46.18,2.5,31c0-5.8,1.74-11.2,4.72-15.71l12.57,21.29l0.01,0.02   c2.05,4.1,6.3,6.92,11.2,6.92C35.43,43.53,39.32,41.23,41.55,37.76z"/><path class="st58" d="M29.32,61.95c-0.05,0-0.1,0-0.14,0C12.82,61,0,47.41,0,31c0-6.11,1.78-12.02,5.13-17.09   c0.48-0.72,1.27-1.15,2.15-1.12c0.86,0.02,1.65,0.49,2.09,1.23l12.57,21.29c0.03,0.05,0.07,0.12,0.1,0.17   c1.71,3.42,5.15,5.54,8.97,5.54c3.43,0,6.59-1.73,8.44-4.62c0.73-1.14,2.23-1.49,3.39-0.79c1.16,0.7,1.55,2.19,0.89,3.37   L31.5,60.68C31.06,61.47,30.22,61.95,29.32,61.95z M7.29,20.33C5.78,23.66,5,27.29,5,31c0,13.24,9.96,24.3,22.94,25.82l6.28-11.14   c-1.04,0.23-2.12,0.34-3.21,0.34c-5.7,0-10.82-3.15-13.4-8.22L7.29,20.33z"/><path class="st61" d="M4.66,44.4c-0.98,0-1.91-0.58-2.31-1.54C0.79,39.09,0,35.1,0,31c0-6.11,1.78-12.02,5.13-17.09   c0.48-0.72,1.27-1.15,2.15-1.12c0.86,0.02,1.65,0.49,2.09,1.23l11.26,19.07c0.7,1.19,0.31,2.72-0.88,3.42   c-1.19,0.7-2.72,0.31-3.42-0.88L7.29,20.33C5.78,23.66,5,27.29,5,31c0,3.44,0.66,6.79,1.97,9.94c0.53,1.28-0.08,2.74-1.35,3.27   C5.3,44.34,4.98,44.4,4.66,44.4z"/><path class="st27" d="M31,62c-0.61,0-1.23-0.02-1.83-0.06c-0.86-0.05-1.63-0.54-2.04-1.3c-0.41-0.76-0.4-1.67,0.02-2.42   l12.22-21.69c0.02-0.03,0.04-0.07,0.06-0.1c1.05-1.64,1.6-3.51,1.6-5.44c0-5.53-4.5-10.03-10.03-10.03c-1.37,0-2.49-1.11-2.5-2.48   s1.09-2.5,2.47-2.52l25.44-0.34c0.94-0.02,1.83,0.52,2.26,1.37C60.88,21.36,62,26.07,62,31C62,48.09,48.09,62,31,62z M43.69,39.05   L33.65,56.87C46.75,55.53,57,44.44,57,31c0-3.61-0.72-7.09-2.14-10.34l-12.81,0.17c2.47,2.68,3.98,6.25,3.98,10.17   C46.03,33.86,45.22,36.64,43.69,39.05z"/><path class="st19" d="M31,46.03c-5.7,0-10.83-3.16-13.41-8.24c-0.02-0.03-0.03-0.06-0.05-0.09c-1.04-2.09-1.57-4.34-1.57-6.7   c0-8.29,6.74-15.03,15.03-15.03S46.03,22.71,46.03,31c0,2.88-0.82,5.68-2.37,8.1C40.87,43.44,36.14,46.03,31,46.03z M21.99,35.41   c0.01,0.03,0.03,0.05,0.04,0.08c1.71,3.42,5.15,5.54,8.97,5.54c3.43,0,6.59-1.73,8.44-4.62c1.04-1.62,1.58-3.49,1.58-5.41   c0-5.53-4.5-10.03-10.03-10.03S20.97,25.47,20.97,31C20.97,32.55,21.32,34.04,21.99,35.41z"/><circle class="st14" cx="31" cy="31" r="6"/></g></svg>