<?xml version="1.0" ?><svg id="Layer_1" style="enable-background:new 0 0 62 62;" version="1.1" viewBox="0 0 62 62" xml:space="preserve" xmlns="http://www.w3.org/2000/svg" xmlns:xlink="http://www.w3.org/1999/xlink"><style type="text/css">
	.st0{fill:#5FD2FF;}
	.st1{fill:#FFFFFF;}
	.st2{fill:#0082ED;}
	.st3{fill:#2BA8FC;}
	.st4{fill:#CECECE;}
	.st5{fill:#F92B75;}
	.st6{fill:#3BB0FF;}
	.st7{fill:#CE004F;}
	.st8{fill:none;stroke:#ED0C68;stroke-width:5;stroke-linecap:round;stroke-linejoin:round;stroke-miterlimit:10;}
	.st9{fill:#ED0C68;}
	.st10{fill:#78DED4;}
	.st11{fill:#1E5363;}
	.st12{fill:#54C8E8;}
	.st13{fill:#F4F4F4;}
	.st14{fill:#0C82EB;}
	.st15{fill:#00B2E3;}
	.st16{fill:#68A2B9;}
	.st17{fill:#A2C5D3;}
	.st18{fill:#76777A;}
	.st19{fill:#A7A8A9;}
	.st20{fill:#D6D6D6;}
	.st21{fill:none;stroke:#F92B75;stroke-width:5;stroke-linecap:round;stroke-linejoin:round;stroke-miterlimit:10;}
	.st22{fill:#FD4A5C;}
	.st23{fill:#FF8E9F;}
	.st24{fill:none;stroke:#F458A3;stroke-width:5;stroke-linecap:round;stroke-linejoin:round;stroke-miterlimit:10;}
	.st25{fill:#FFB259;}
	.st26{fill:#F32735;}
	.st27{fill:#FF9E18;}
	.st28{fill:#FFC27A;}
	.st29{fill:#FFC56D;}
	.st30{fill:none;stroke:#FD4A5C;stroke-width:5;stroke-linecap:round;stroke-linejoin:round;stroke-miterlimit:10;}
	.st31{fill:#0069A7;}
	.st32{fill:#D8D8D8;}
	.st33{fill:#8CB7C9;}
	.st34{fill:#65BAAF;}
	.st35{fill:#00AF9A;}
	.st36{fill:#00C4B3;}
	.st37{fill:#19D3C5;}
	.st38{fill:none;stroke:#54C8E8;stroke-width:5;stroke-linecap:round;stroke-linejoin:round;stroke-miterlimit:10;}
	.st39{fill:#8331A7;}
	.st40{fill:#009383;}
	.st41{fill:#98989A;}
	.st42{fill:#636569;}
	.st43{fill:#898A8D;}
	.st44{fill:#FFB548;}
	.st45{fill:none;stroke:#FFB548;stroke-width:5;stroke-linecap:round;stroke-linejoin:round;stroke-miterlimit:10;}
	.st46{fill:#ED40A9;}
	.st47{fill:#CB007B;}
	.st48{fill:#E50695;}
	.st49{fill:#D7282F;}
	.st50{fill:#E5E5E5;}
	.st51{fill:#FFA4B4;}
	.st52{fill:#F6A7D7;}
	.st53{fill:#F478C4;}
	.st54{fill:#E0C7E6;}
	.st55{fill:#B980D0;}
	.st56{fill:#D9B7E2;}
	.st57{fill:#BADF93;}
	.st58{fill:#4C9C2E;}
	.st59{fill:#3DAE2B;}
	.st60{fill:#AADA91;}
	.st61{fill:#6ABF4B;}
	.st62{fill:#EFB8A9;}
	.st63{fill:#FECB8B;}
	.st64{fill:#BDE8EF;}
	.st65{fill:#CCA1DD;}
	.st66{fill:#B2B2B2;}
	.st67{fill:none;stroke:#FF8300;stroke-width:5;stroke-linecap:round;stroke-linejoin:round;stroke-miterlimit:10;}
	.st68{fill:none;stroke:#FF9E18;stroke-width:5;stroke-linecap:round;stroke-linejoin:round;stroke-miterlimit:10;}
	.st69{fill:#96DAEA;}
	.st70{fill:#FF8300;}
	.st71{fill:none;stroke:#6ABF4B;stroke-width:5;stroke-linecap:round;stroke-linejoin:round;stroke-miterlimit:10;}
	.st72{fill:none;}
	.st73{fill:#444444;}
	.st74{fill:#FDCF85;}
</style><g><polygon class="st32" points="59.5,2.5 59.5,59.5 31,31  "/><path class="st18" d="M59.5,62c-0.65,0-1.29-0.25-1.77-0.73l-28.5-28.5c-0.98-0.98-0.98-2.56,0-3.54l28.5-28.5   c0.71-0.71,1.79-0.93,2.72-0.54C61.39,0.58,62,1.49,62,2.5v57c0,1.01-0.61,1.92-1.54,2.31C60.15,61.94,59.82,62,59.5,62z M34.54,31   L57,53.46V8.54L34.54,31z"/><polygon class="st12" points="59.5,59.5 2.5,59.5 31,31  "/><path class="st14" d="M59.5,62h-57c-1.01,0-1.92-0.61-2.31-1.54c-0.39-0.93-0.17-2.01,0.54-2.72l28.5-28.5   c0.98-0.98,2.56-0.98,3.54,0l28.5,28.5c0.71,0.71,0.93,1.79,0.54,2.72C61.42,61.39,60.51,62,59.5,62z M8.54,57h44.93L31,34.54   L8.54,57z"/><polygon class="st60" points="59.5,2.5 2.5,59.5 2.5,2.5  "/><path class="st58" d="M2.5,62c-0.32,0-0.65-0.06-0.96-0.19C0.61,61.42,0,60.51,0,59.5v-57C0,1.12,1.12,0,2.5,0h57   c1.01,0,1.92,0.61,2.31,1.54c0.39,0.93,0.17,2.01-0.54,2.72l-57,57C3.79,61.75,3.15,62,2.5,62z M5,5v48.46L53.46,5H5z"/><path class="st61" d="M2.5,22.04c-1.38,0-2.5-1.12-2.5-2.5V2.5C0,1.12,1.12,0,2.5,0h29.2c1.38,0,2.5,1.12,2.5,2.5S33.08,5,31.7,5H5   v14.54C5,20.92,3.88,22.04,2.5,22.04z"/><path class="st27" d="M2.5,62c-0.64,0-1.28-0.24-1.77-0.73c-0.98-0.98-0.98-2.56,0-3.54l57-57c0.98-0.98,2.56-0.98,3.54,0   s0.98,2.56,0,3.54l-57,57C3.78,61.76,3.14,62,2.5,62z"/><path class="st51" d="M52.56,17.3c0,1.59-0.44,3.06-1.22,4.33l-7.08,12.05l-7.08-12.05c-0.78-1.26-1.22-2.74-1.22-4.33   c0-4.58,3.72-8.3,8.3-8.3S52.56,12.73,52.56,17.3z"/><path class="st26" d="M44.27,36.18c-0.89,0-1.71-0.47-2.16-1.23L35.03,22.9c-1.01-1.65-1.56-3.59-1.56-5.59   c0-5.95,4.84-10.8,10.8-10.8s10.8,4.84,10.8,10.8c0,2-0.55,3.95-1.59,5.64l-7.05,12.01C45.97,35.71,45.15,36.18,44.27,36.18z    M44.27,11.51c-3.2,0-5.8,2.6-5.8,5.8c0,1.07,0.29,2.12,0.85,3.02l4.95,8.42l4.92-8.38c0.58-0.94,0.87-1.99,0.87-3.06   C50.06,14.11,47.46,11.51,44.27,11.51z"/><path class="st22" d="M37.19,24.13c-0.84,0-1.66-0.42-2.13-1.19c-1.04-1.69-1.59-3.64-1.59-5.64c0-5.95,4.84-10.8,10.8-10.8   c1.38,0,2.5,1.12,2.5,2.5s-1.12,2.5-2.5,2.5c-3.2,0-5.8,2.6-5.8,5.8c0,1.07,0.29,2.12,0.85,3.02c0.72,1.18,0.36,2.72-0.82,3.44   C38.09,24.01,37.64,24.13,37.19,24.13z"/><g><path class="st13" d="M19.28,27.34C12.9,28.19,7.54,22.57,8.82,16.13c0.77-3.84,4-6.84,7.88-7.36c2.02-0.27,3.99,0.1,5.7,1    c1.26,0.67,1.5,2.38,0.49,3.39l-0.1,0.1c-0.7,0.7-1.72,0.79-2.58,0.36c-0.95-0.47-2.04-0.64-3.15-0.44    c-1.93,0.35-3.51,1.89-3.91,3.81c-0.66,3.19,1.77,6.01,4.84,6.01c1.94,0,3.62-1.12,4.43-2.74h-2.22c-1.22,0-2.21-0.99-2.21-2.21v0    c0-1.22,0.99-2.21,2.21-2.21h5.23c1.07,0,1.93,0.86,1.93,1.93v0C27.37,22.52,23.97,26.72,19.28,27.34z"/></g></g></svg>