<?xml version="1.0" ?><svg id="Layer_1" style="enable-background:new 0 0 62 62;" version="1.1" viewBox="0 0 62 62" xml:space="preserve" xmlns="http://www.w3.org/2000/svg" xmlns:xlink="http://www.w3.org/1999/xlink"><style type="text/css">
	.st0{fill:#5FD2FF;}
	.st1{fill:#FFFFFF;}
	.st2{fill:#0082ED;}
	.st3{fill:#2BA8FC;}
	.st4{fill:#CECECE;}
	.st5{fill:#F92B75;}
	.st6{fill:#3BB0FF;}
	.st7{fill:#CE004F;}
	.st8{fill:none;stroke:#ED0C68;stroke-width:5;stroke-linecap:round;stroke-linejoin:round;stroke-miterlimit:10;}
	.st9{fill:#ED0C68;}
	.st10{fill:#78DED4;}
	.st11{fill:#1E5363;}
	.st12{fill:#54C8E8;}
	.st13{fill:#F4F4F4;}
	.st14{fill:#0C82EB;}
	.st15{fill:#00B2E3;}
	.st16{fill:#68A2B9;}
	.st17{fill:#A2C5D3;}
	.st18{fill:#76777A;}
	.st19{fill:#A7A8A9;}
	.st20{fill:#D6D6D6;}
	.st21{fill:none;stroke:#F92B75;stroke-width:5;stroke-linecap:round;stroke-linejoin:round;stroke-miterlimit:10;}
	.st22{fill:#FD4A5C;}
	.st23{fill:#FF8E9F;}
	.st24{fill:none;stroke:#F458A3;stroke-width:5;stroke-linecap:round;stroke-linejoin:round;stroke-miterlimit:10;}
	.st25{fill:#FFB259;}
	.st26{fill:#F32735;}
	.st27{fill:#FF9E18;}
	.st28{fill:#FFC27A;}
	.st29{fill:#FFC56D;}
	.st30{fill:none;stroke:#FD4A5C;stroke-width:5;stroke-linecap:round;stroke-linejoin:round;stroke-miterlimit:10;}
	.st31{fill:#0069A7;}
	.st32{fill:#D8D8D8;}
	.st33{fill:#8CB7C9;}
	.st34{fill:#65BAAF;}
	.st35{fill:#00AF9A;}
	.st36{fill:#00C4B3;}
	.st37{fill:#19D3C5;}
	.st38{fill:none;stroke:#54C8E8;stroke-width:5;stroke-linecap:round;stroke-linejoin:round;stroke-miterlimit:10;}
	.st39{fill:#8331A7;}
	.st40{fill:#009383;}
	.st41{fill:#98989A;}
	.st42{fill:#636569;}
	.st43{fill:#898A8D;}
	.st44{fill:#FFB548;}
	.st45{fill:none;stroke:#FFB548;stroke-width:5;stroke-linecap:round;stroke-linejoin:round;stroke-miterlimit:10;}
	.st46{fill:#ED40A9;}
	.st47{fill:#CB007B;}
	.st48{fill:#E50695;}
	.st49{fill:#D7282F;}
	.st50{fill:#E5E5E5;}
	.st51{fill:#FFA4B4;}
	.st52{fill:#F6A7D7;}
	.st53{fill:#F478C4;}
	.st54{fill:#E0C7E6;}
	.st55{fill:#B980D0;}
	.st56{fill:#D9B7E2;}
	.st57{fill:#BADF93;}
	.st58{fill:#4C9C2E;}
	.st59{fill:#3DAE2B;}
	.st60{fill:#AADA91;}
	.st61{fill:#6ABF4B;}
	.st62{fill:#EFB8A9;}
	.st63{fill:#FECB8B;}
	.st64{fill:#BDE8EF;}
	.st65{fill:#CCA1DD;}
	.st66{fill:#B2B2B2;}
	.st67{fill:none;stroke:#FF8300;stroke-width:5;stroke-linecap:round;stroke-linejoin:round;stroke-miterlimit:10;}
	.st68{fill:none;stroke:#FF9E18;stroke-width:5;stroke-linecap:round;stroke-linejoin:round;stroke-miterlimit:10;}
	.st69{fill:#96DAEA;}
	.st70{fill:#FF8300;}
	.st71{fill:none;stroke:#6ABF4B;stroke-width:5;stroke-linecap:round;stroke-linejoin:round;stroke-miterlimit:10;}
	.st72{fill:none;}
	.st73{fill:#444444;}
	.st74{fill:#FDCF85;}
</style><g><path class="st63" d="M49.5,59.5h-37c-5.52,0-10-4.48-10-10v-37c0-5.52,4.48-10,10-10h37c5.52,0,10,4.48,10,10v37   C59.5,55.02,55.02,59.5,49.5,59.5z"/><path class="st27" d="M47.5,62h-33C6.5,62,0,55.5,0,47.5v-33C0,6.5,6.5,0,14.5,0h33C55.5,0,62,6.5,62,14.5v33   C62,55.5,55.5,62,47.5,62z M14.5,5C9.26,5,5,9.26,5,14.5v33c0,5.24,4.26,9.5,9.5,9.5h33c5.24,0,9.5-4.26,9.5-9.5v-33   C57,9.26,52.74,5,47.5,5H14.5z"/><path class="st25" d="M2.5,33.5C1.12,33.5,0,32.38,0,31V14.5C0,6.5,6.5,0,14.5,0H31c1.38,0,2.5,1.12,2.5,2.5S32.38,5,31,5H14.5   C9.26,5,5,9.26,5,14.5V31C5,32.38,3.88,33.5,2.5,33.5z"/><circle class="st23" cx="31" cy="31" r="14.41"/><path class="st26" d="M31,47.92c-9.33,0-16.92-7.59-16.92-16.92S21.67,14.08,31,14.08S47.92,21.67,47.92,31S40.33,47.92,31,47.92z    M31,19.08c-6.57,0-11.92,5.34-11.92,11.92S24.43,42.92,31,42.92S42.92,37.57,42.92,31S37.57,19.08,31,19.08z"/><path class="st22" d="M16.58,33.5c-1.38,0-2.5-1.12-2.5-2.5c0-9.33,7.59-16.92,16.92-16.92c1.38,0,2.5,1.12,2.5,2.5   s-1.12,2.5-2.5,2.5c-6.57,0-11.92,5.34-11.92,11.92C19.08,32.38,17.97,33.5,16.58,33.5z"/><circle class="st46" cx="48.48" cy="12.44" r="3"/></g></svg>