<?xml version="1.0" ?><svg id="Layer_1" style="enable-background:new 0 0 62 62;" version="1.1" viewBox="0 0 62 62" xml:space="preserve" xmlns="http://www.w3.org/2000/svg" xmlns:xlink="http://www.w3.org/1999/xlink"><style type="text/css">
	.st0{fill:#5FD2FF;}
	.st1{fill:#FFFFFF;}
	.st2{fill:#0082ED;}
	.st3{fill:#2BA8FC;}
	.st4{fill:#CECECE;}
	.st5{fill:#F92B75;}
	.st6{fill:#3BB0FF;}
	.st7{fill:#CE004F;}
	.st8{fill:none;stroke:#ED0C68;stroke-width:5;stroke-linecap:round;stroke-linejoin:round;stroke-miterlimit:10;}
	.st9{fill:#ED0C68;}
	.st10{fill:#78DED4;}
	.st11{fill:#1E5363;}
	.st12{fill:#54C8E8;}
	.st13{fill:#F4F4F4;}
	.st14{fill:#0C82EB;}
	.st15{fill:#00B2E3;}
	.st16{fill:#68A2B9;}
	.st17{fill:#A2C5D3;}
	.st18{fill:#76777A;}
	.st19{fill:#A7A8A9;}
	.st20{fill:#D6D6D6;}
	.st21{fill:none;stroke:#F92B75;stroke-width:5;stroke-linecap:round;stroke-linejoin:round;stroke-miterlimit:10;}
	.st22{fill:#FD4A5C;}
	.st23{fill:#FF8E9F;}
	.st24{fill:none;stroke:#F458A3;stroke-width:5;stroke-linecap:round;stroke-linejoin:round;stroke-miterlimit:10;}
	.st25{fill:#FFB259;}
	.st26{fill:#F32735;}
	.st27{fill:#FF9E18;}
	.st28{fill:#FFC27A;}
	.st29{fill:#FFC56D;}
	.st30{fill:none;stroke:#FD4A5C;stroke-width:5;stroke-linecap:round;stroke-linejoin:round;stroke-miterlimit:10;}
	.st31{fill:#0069A7;}
	.st32{fill:#D8D8D8;}
	.st33{fill:#8CB7C9;}
	.st34{fill:#65BAAF;}
	.st35{fill:#00AF9A;}
	.st36{fill:#00C4B3;}
	.st37{fill:#19D3C5;}
	.st38{fill:none;stroke:#54C8E8;stroke-width:5;stroke-linecap:round;stroke-linejoin:round;stroke-miterlimit:10;}
	.st39{fill:#8331A7;}
	.st40{fill:#009383;}
	.st41{fill:#98989A;}
	.st42{fill:#636569;}
	.st43{fill:#898A8D;}
	.st44{fill:#FFB548;}
	.st45{fill:none;stroke:#FFB548;stroke-width:5;stroke-linecap:round;stroke-linejoin:round;stroke-miterlimit:10;}
	.st46{fill:#ED40A9;}
	.st47{fill:#CB007B;}
	.st48{fill:#E50695;}
	.st49{fill:#D7282F;}
	.st50{fill:#E5E5E5;}
	.st51{fill:#FFA4B4;}
	.st52{fill:#F6A7D7;}
	.st53{fill:#F478C4;}
	.st54{fill:#E0C7E6;}
	.st55{fill:#B980D0;}
	.st56{fill:#D9B7E2;}
	.st57{fill:#BADF93;}
	.st58{fill:#4C9C2E;}
	.st59{fill:#3DAE2B;}
	.st60{fill:#AADA91;}
	.st61{fill:#6ABF4B;}
	.st62{fill:#EFB8A9;}
	.st63{fill:#FECB8B;}
	.st64{fill:#BDE8EF;}
	.st65{fill:#CCA1DD;}
	.st66{fill:#B2B2B2;}
	.st67{fill:none;stroke:#FF8300;stroke-width:5;stroke-linecap:round;stroke-linejoin:round;stroke-miterlimit:10;}
	.st68{fill:none;stroke:#FF9E18;stroke-width:5;stroke-linecap:round;stroke-linejoin:round;stroke-miterlimit:10;}
	.st69{fill:#96DAEA;}
	.st70{fill:#FF8300;}
	.st71{fill:none;stroke:#6ABF4B;stroke-width:5;stroke-linecap:round;stroke-linejoin:round;stroke-miterlimit:10;}
	.st72{fill:none;}
	.st73{fill:#444444;}
	.st74{fill:#FDCF85;}
</style><g><rect class="st54" height="46.9" width="31.98" x="27.54" y="7.55"/><path class="st39" d="M59.52,56.93H27.54c-1.37,0-2.48-1.11-2.48-2.48V7.55c0-1.37,1.11-2.48,2.48-2.48h31.98   c1.37,0,2.48,1.11,2.48,2.48v46.9C62,55.82,60.89,56.93,59.52,56.93z M30.02,51.97h27.02V10.03H30.02V51.97z"/><g><path class="st55" d="M49.4,23.56H27.54c-1.37,0-2.48-1.11-2.48-2.48c0-1.37,1.11-2.48,2.48-2.48H49.4c1.37,0,2.48,1.11,2.48,2.48    C51.88,22.45,50.77,23.56,49.4,23.56z"/><path class="st55" d="M49.4,33.48H27.54c-1.37,0-2.48-1.11-2.48-2.48c0-1.37,1.11-2.48,2.48-2.48H49.4c1.37,0,2.48,1.11,2.48,2.48    C51.88,32.37,50.77,33.48,49.4,33.48z"/><path class="st55" d="M49.4,43.4H27.54c-1.37,0-2.48-1.11-2.48-2.48s1.11-2.48,2.48-2.48H49.4c1.37,0,2.48,1.11,2.48,2.48    S50.77,43.4,49.4,43.4z"/></g><path class="st56" d="M32.88,58.08L4.02,53.3c-0.89-0.15-1.54-0.92-1.54-1.82V10.52c0-0.9,0.65-1.67,1.54-1.82l28.85-4.78   C34,3.73,35.02,4.6,35.02,5.74v50.52C35.02,57.4,34,58.27,32.88,58.08z"/><path class="st39" d="M35.02,60.92c-0.13,0-0.27-0.01-0.41-0.03l-32.54-5.4C0.88,55.29,0,54.25,0,53.04V8.96   c0-1.21,0.88-2.25,2.07-2.45l32.54-5.4C35.34,1,36.07,1.2,36.63,1.67c0.56,0.47,0.88,1.16,0.88,1.89v54.88   c0,0.73-0.32,1.42-0.88,1.89C36.18,60.71,35.61,60.92,35.02,60.92z M4.96,50.94l27.58,4.57V6.49L4.96,11.06V50.94z"/><path class="st55" d="M2.48,32.8C1.11,32.8,0,31.69,0,30.32V8.96c0-1.21,0.88-2.25,2.07-2.45l16.27-2.7   c1.35-0.22,2.63,0.69,2.85,2.04c0.22,1.35-0.69,2.63-2.04,2.85l-14.2,2.35v19.26C4.96,31.69,3.85,32.8,2.48,32.8z"/><g><path class="st39" d="M25.47,24.33v14.05c0,1.02-0.83,1.84-1.84,1.84h-0.08c-0.58,0-1.13-0.28-1.48-0.74l-7.42-9.99v6.91    c0,1.02-0.83,1.84-1.84,1.84h0c-1.02,0-1.84-0.83-1.84-1.84V24.33c0-1.02,0.83-1.84,1.84-1.84h0.07c0.58,0,1.13,0.27,1.48,0.74    l7.45,9.93v-8.82c0-1.02,0.83-1.84,1.84-1.84h0C24.65,22.49,25.47,23.31,25.47,24.33z"/></g></g></svg>